<svg width="271" height="300" viewBox="0 0 271 300" fill="none" xmlns="http://www.w3.org/2000/svg">
<path fill-rule="evenodd" clip-rule="evenodd" d="M44.4836 0C31.7811 0 21.4836 10.2974 21.4836 23V45.8957H20.803H17C7.61116 45.8957 0 53.5069 0 62.8957V67.0182C0 76.407 7.61116 84.0182 17 84.0182H20.803H21.4836V113.275H20.803H17C7.61116 113.275 0 120.886 0 130.275V134.397C0 143.786 7.61116 151.397 17 151.397H20.803H21.4836V180.654H20.803H17C7.61116 180.654 0 188.265 0 197.654V201.777C0 211.165 7.61116 218.777 17 218.777H20.803H21.4836V242.559C21.4836 255.261 31.781 265.559 44.4836 265.559H113.037V253.559H44.4836C38.4085 253.559 33.4836 248.634 33.4836 242.559L33.4836 23C33.4836 16.9249 38.4085 12 44.4836 12H210.848C216.923 12 221.848 16.9249 221.848 23V137.655H233.848V23C233.848 10.2974 223.551 0 210.848 0H44.4836ZM17 57.8957H20.803V72.0182H17C14.2386 72.0182 12 69.7796 12 67.0182V62.8957C12 60.1343 14.2386 57.8957 17 57.8957ZM20.803 125.275H17C14.2386 125.275 12 127.513 12 130.275V134.397C12 137.159 14.2386 139.397 17 139.397H20.803V125.275ZM17 192.654H20.803V206.777H17C14.2386 206.777 12 204.538 12 201.777V197.654C12 194.893 14.2386 192.654 17 192.654Z" fill="white"/>
<path d="M187.066 259.559L210.848 259.558C220.237 259.558 227.848 251.947 227.848 242.558L227.848 218.776" stroke="white" stroke-width="12"/>
<rect x="74.2656" y="51.8955" width="111.233" height="56.2658" rx="11" stroke="white" stroke-width="12"/>
<rect x="82.2293" y="134.331" width="95.3061" height="8.4224" stroke="white" stroke-width="8.4224"/>
<rect x="101.734" y="158.268" width="56.2971" height="8.4224" stroke="white" stroke-width="8.4224"/>
<rect x="142.855" y="232.975" width="93.0897" height="40.7821" transform="rotate(-45 142.855 232.975)" fill="white"/>
<path d="M221.218 154.613L233.275 142.556C235.618 140.213 239.417 140.213 241.76 142.556L262.112 162.908C264.455 165.251 264.455 169.05 262.112 171.393L250.056 183.45L221.218 154.613Z" fill="white"/>
<path d="M125.887 281.715C124.528 281.945 123.349 280.766 123.58 279.408L129.012 247.42C129.284 245.819 131.25 245.192 132.398 246.34L158.955 272.896C160.103 274.045 159.476 276.011 157.875 276.282L125.887 281.715Z" fill="white"/>
</svg>
