<svg width="259" height="301" viewBox="0 0 259 301" fill="none" xmlns="http://www.w3.org/2000/svg">
<rect x="6" y="294" width="184.124" height="246.178" rx="16.7344" transform="rotate(-90 6 294)" stroke="white" stroke-width="12"/>
<path d="M129.089 194.66L129.089 220.758C129.089 223.269 127.054 225.305 124.542 225.305L10.6758 225.305C8.16461 225.305 6.12891 227.34 6.12891 229.852L6.12891 252.934C6.12891 255.446 8.16461 257.481 10.6758 257.481L124.542 257.481C127.054 257.481 129.089 259.517 129.089 262.028L129.089 289.708C129.089 292.219 131.125 294.254 133.636 294.254L153.654 294.254C156.166 294.254 158.201 292.219 158.201 289.708L158.201 229.852C158.201 227.34 160.237 225.305 162.748 225.305L231.757 225.305C233.044 225.305 234.271 225.85 235.134 226.807L252.433 245.99M129.089 194.66L129.089 185.034C129.089 182.523 127.054 180.487 124.542 180.487L79.938 180.487C78.5609 180.487 77.258 179.863 76.395 178.79L26.614 116.9V116.9C24.3832 114.127 26.3574 110.005 29.9166 110.005L177.021 110.005C179.532 110.005 181.568 112.041 181.568 114.552L181.568 190.113C181.568 192.625 179.532 194.66 177.021 194.66L129.089 194.66ZM252.433 245.99L252.433 132.606M252.433 245.99L214.914 204.385C214.161 203.55 213.744 202.465 213.744 201.34L213.744 114.169C213.744 111.658 215.78 109.622 218.291 109.622L228.3 109.622" stroke="white" stroke-width="12" stroke-linejoin="round"/>
<line x1="140.132" y1="56.4766" x2="140.132" y2="147.242" stroke="white" stroke-width="12"/>
<circle cx="140.183" cy="32.2723" r="26.2723" stroke="white" stroke-width="12"/>
</svg>
