<svg width="290" height="300" viewBox="0 0 290 300" fill="none" xmlns="http://www.w3.org/2000/svg">
<path d="M285.129 279.655L164.116 270.744C163.482 270.695 162.845 270.781 162.241 270.997C161.638 271.212 161.08 271.554 160.601 272.002C160.121 272.45 159.728 272.996 159.446 273.607C159.163 274.218 158.996 274.883 158.954 275.564C158.464 279.27 156.745 282.661 154.111 285.114C151.477 287.568 148.106 288.919 144.618 288.919C141.13 288.919 137.759 287.568 135.125 285.114C132.491 282.661 130.771 279.27 130.281 275.564C130.197 274.263 129.658 273.044 128.772 272.15C127.886 271.257 126.719 270.755 125.503 270.744L9.65169 279.29V268.918L144.808 258.922L284.456 269.281C285.736 269.377 287 268.923 287.969 268.02C288.937 267.116 289.532 265.837 289.621 264.463C289.711 263.089 289.288 261.734 288.446 260.694C287.604 259.655 286.411 259.017 285.131 258.921L149.637 248.926V225.677C163.544 217.512 179.784 215.186 195.201 219.152L265.483 237.115V259.284C265.483 260.657 265.991 261.975 266.897 262.946C267.802 263.917 269.03 264.463 270.31 264.463C271.591 264.463 272.818 263.917 273.724 262.946C274.629 261.975 275.138 260.657 275.138 259.284V233.018C275.167 231.829 274.814 230.665 274.137 229.722C273.46 228.779 272.501 228.115 271.422 227.842L197.424 209.094C179.601 204.507 160.823 207.266 144.806 216.827C128.789 207.273 110.012 204.52 92.193 209.111L18.1964 227.864C17.1168 228.137 16.1578 228.801 15.481 229.744C14.8042 230.687 14.4508 231.851 14.4804 233.04V258.21L4.48875 258.934C3.2677 259.025 2.12469 259.611 1.29124 260.573C0.457793 261.534 -0.00377936 262.8 2.33107e-05 264.113V284.818C0.00519561 285.527 0.144836 286.228 0.410443 286.877C0.67605 287.526 1.06207 288.111 1.54499 288.595C2.02792 289.08 2.59765 289.453 3.2195 289.694C3.84135 289.934 4.50231 290.036 5.16214 289.994L121.637 281.36C123.1 286.737 126.149 291.461 130.326 294.822C134.504 298.183 139.584 300 144.806 300C150.027 300 155.108 298.183 159.285 294.822C163.463 291.461 166.511 286.737 167.974 281.36L284.454 290.016C285.088 290.064 285.725 289.977 286.328 289.76C286.93 289.544 287.487 289.202 287.967 288.755C288.447 288.308 288.839 287.763 289.123 287.153C289.407 286.543 289.575 285.879 289.62 285.198C289.664 284.518 289.583 283.835 289.381 283.189C289.18 282.542 288.861 281.944 288.444 281.43C288.027 280.915 287.52 280.494 286.951 280.19C286.382 279.885 285.763 279.704 285.129 279.657V279.655ZM24.1296 237.115L94.4111 219.142C109.828 215.176 126.068 217.502 139.976 225.667V248.917L24.1296 257.486V237.115Z" fill="white"/>
<path d="M101.363 145.005H188.246C191.416 145.005 194.555 144.335 197.484 143.034C200.413 141.733 203.074 139.825 205.315 137.42C207.556 135.015 209.334 132.16 210.547 129.018C211.76 125.876 212.384 122.508 212.383 119.107V62.1438C212.383 60.7702 211.875 59.4529 210.969 58.4816C210.064 57.5103 208.836 56.9646 207.556 56.9646C206.276 56.9646 205.048 57.5103 204.142 58.4816C203.237 59.4529 202.728 60.7702 202.728 62.1438V119.107C202.728 121.147 202.354 123.167 201.626 125.052C200.899 126.937 199.832 128.649 198.487 130.092C197.143 131.534 195.547 132.679 193.79 133.459C192.033 134.24 190.15 134.642 188.249 134.642H101.365C99.4633 134.642 97.5802 134.241 95.8231 133.46C94.0661 132.679 92.4696 131.535 91.1248 130.093C89.78 128.65 88.7132 126.937 87.9854 125.053C87.2576 123.168 86.883 121.147 86.883 119.107V25.8922C86.8823 23.8518 87.2564 21.8311 87.9837 19.9458C88.7111 18.0604 89.7776 16.3473 91.1222 14.9042C92.4668 13.4611 94.0632 12.3163 95.8203 11.5353C97.5774 10.7543 99.4606 10.3523 101.363 10.3523H188.246C192.087 10.3523 195.77 11.989 198.485 14.9023C201.2 17.8156 202.726 21.7669 202.726 25.8869V62.3208C202.726 63.6944 203.235 65.0118 204.14 65.9831C205.045 66.9544 206.273 67.5 207.553 67.5C208.834 67.5 210.062 66.9544 210.967 65.9831C211.872 65.0118 212.381 63.6944 212.381 62.3208V25.8922C212.381 19.0257 209.838 12.4405 205.313 7.58485C200.788 2.72924 194.65 0.000934806 188.25 2.39855e-07H101.366C98.1962 -0.000462596 95.0576 0.668912 92.1291 1.9699C89.2007 3.27089 86.5397 5.17801 84.2983 7.58236C82.0569 9.98671 80.2788 12.8412 79.0657 15.9828C77.8526 19.1245 77.2281 22.4917 77.228 25.8922V119.107C77.2275 122.508 77.8513 125.875 79.064 129.017C80.2766 132.159 82.0543 135.014 84.2954 137.419C86.5365 139.824 89.1973 141.732 92.1257 143.033C95.0541 144.335 98.1928 145.005 101.363 145.005Z" fill="white"/>
<path d="M115.842 82.8578C115.208 82.8578 114.581 82.9918 113.995 83.2521C113.41 83.5124 112.878 83.8939 112.43 84.3748C111.981 84.8558 111.626 85.4267 111.384 86.055C111.142 86.6833 111.017 87.3567 111.017 88.0366V108.761C111.014 109.646 111.223 110.518 111.624 111.291C112.026 112.065 112.606 112.715 113.31 113.177C114.014 113.64 114.817 113.901 115.641 113.934C116.466 113.967 117.285 113.772 118.019 113.367L185.597 77.1161C186.388 76.6821 187.052 76.022 187.516 75.2088C187.98 74.3956 188.225 73.4607 188.225 72.5073C188.225 71.5539 187.98 70.619 187.516 69.8058C187.052 68.9925 186.388 68.3325 185.597 67.8985L118.02 31.6399C117.285 31.241 116.467 31.0506 115.644 31.0869C114.821 31.1231 114.02 31.3848 113.318 31.847C112.616 32.3092 112.036 32.9566 111.634 33.7274C111.231 34.4982 111.019 35.3668 111.017 36.2504L111.017 88.3208C111.017 89.6944 111.526 91.0118 112.431 91.9831C113.336 92.9544 114.564 93.5 115.845 93.5C117.125 93.5 118.353 92.9544 119.258 91.9831C120.163 91.0118 120.672 89.6944 120.672 88.3208L120.672 44.6353L172.608 72.4967L120.67 100.358V88.0366C120.67 87.3565 120.545 86.6829 120.302 86.0546C120.059 85.4262 119.703 84.8554 119.255 84.3747C118.806 83.894 118.274 83.5128 117.688 83.253C117.102 82.9932 116.474 82.8598 115.84 82.8605L115.842 82.8578Z" fill="white"/>
<path d="M139.981 165.721V201.971C139.981 203.345 140.49 204.662 141.395 205.634C142.301 206.605 143.529 207.151 144.809 207.151C146.089 207.151 147.317 206.605 148.222 205.634C149.128 204.662 149.636 203.345 149.636 201.971V165.721C149.636 164.347 149.128 163.03 148.222 162.058C147.317 161.087 146.089 160.542 144.809 160.542C143.529 160.542 142.301 161.087 141.395 162.058C140.49 163.03 139.981 164.347 139.981 165.721V165.721Z" fill="white"/>
<path d="M173.77 159.502L168.946 185.395C168.805 186.077 168.794 186.781 168.914 187.467C169.033 188.153 169.281 188.806 169.641 189.386C170.002 189.967 170.468 190.464 171.011 190.846C171.555 191.229 172.165 191.49 172.805 191.614H173.771C174.9 191.637 176.001 191.235 176.882 190.477C177.764 189.72 178.37 188.655 178.596 187.468L183.42 161.575C183.676 160.202 183.414 158.775 182.689 157.609C181.965 156.444 180.839 155.634 179.559 155.36C178.279 155.085 176.949 155.367 175.862 156.144C174.776 156.92 174.021 158.129 173.765 159.502H173.77Z" fill="white"/>
<path d="M105.226 155.363C104.587 155.487 103.977 155.748 103.434 156.131C102.891 156.513 102.425 157.009 102.065 157.589C101.704 158.169 101.457 158.822 101.337 159.507C101.217 160.192 101.227 160.896 101.367 161.577L106.191 187.47C106.417 188.657 107.023 189.722 107.904 190.479C108.786 191.236 109.887 191.638 111.016 191.615H111.982C112.622 191.491 113.232 191.23 113.775 190.847C114.319 190.465 114.785 189.968 115.145 189.387C115.506 188.807 115.753 188.154 115.873 187.468C115.992 186.782 115.982 186.078 115.841 185.397L111.017 159.504C110.902 158.817 110.659 158.162 110.303 157.578C109.946 156.994 109.483 156.494 108.942 156.107C108.4 155.72 107.791 155.455 107.152 155.327C106.513 155.199 105.856 155.211 105.221 155.363L105.226 155.363Z" fill="white"/>
<path d="M195.252 195.913C196.029 196.496 196.957 196.805 197.905 196.794C198.7 196.789 199.481 196.573 200.18 196.167C200.879 195.76 201.474 195.175 201.912 194.463L230.876 147.856C231.3 147.295 231.611 146.645 231.788 145.947C231.964 145.25 232.003 144.52 231.901 143.806C231.799 143.091 231.559 142.408 231.196 141.799C230.833 141.19 230.356 140.669 229.794 140.27C229.233 139.871 228.6 139.602 227.935 139.481C227.271 139.36 226.591 139.389 225.938 139.567C225.285 139.745 224.674 140.068 224.144 140.514C223.614 140.96 223.177 141.521 222.861 142.159L193.897 188.766C193.199 189.909 192.949 191.302 193.203 192.641C193.456 193.98 194.193 195.157 195.252 195.917L195.252 195.913Z" fill="white"/>
<path d="M82.8762 194.466C83.314 195.178 83.9087 195.763 84.6075 196.169C85.3064 196.576 86.0879 196.791 86.8828 196.796C87.8311 196.807 88.7587 196.499 89.5353 195.915C90.5887 195.156 91.3212 193.983 91.5746 192.649C91.828 191.315 91.5819 189.927 90.8895 188.786L61.9255 142.179C61.6095 141.541 61.1726 140.98 60.6428 140.534C60.113 140.088 59.5019 139.765 58.849 139.587C58.1961 139.409 57.5157 139.38 56.8515 139.501C56.1874 139.622 55.5542 139.891 54.9926 140.29C54.431 140.689 53.9535 141.21 53.5907 141.819C53.2279 142.428 52.9879 143.112 52.8861 143.826C52.7842 144.54 52.8228 145.27 52.9994 145.967C53.176 146.665 53.4866 147.315 53.9113 147.876L82.8762 194.466Z" fill="white"/>
<path d="M223.01 199.899C223.39 200.443 223.867 200.902 224.412 201.249C224.957 201.595 225.561 201.823 226.188 201.919C226.816 202.016 227.455 201.978 228.069 201.809C228.683 201.64 229.26 201.343 229.767 200.935L249.077 185.401C250.051 184.557 250.682 183.341 250.836 182.009C250.991 180.676 250.657 179.331 249.906 178.257C249.154 177.184 248.044 176.465 246.808 176.252C245.572 176.04 244.307 176.35 243.281 177.119L223.972 192.653C222.949 193.478 222.273 194.704 222.093 196.063C221.912 197.421 222.242 198.801 223.01 199.899Z" fill="white"/>
<path d="M59.8514 200.935C60.8783 201.696 62.1398 202.001 63.3717 201.786C64.6035 201.571 65.7101 200.853 66.4594 199.783C67.2088 198.712 67.5428 197.372 67.3914 196.043C67.2401 194.713 66.6151 193.499 65.6475 192.653L46.3376 177.112C45.311 176.344 44.0466 176.034 42.8107 176.246C41.5749 176.458 40.4641 177.177 39.7126 178.251C38.9611 179.325 38.6275 180.67 38.7821 182.002C38.9368 183.335 39.5675 184.551 40.5415 185.394L59.8514 200.935Z" fill="white"/>
</svg>
