<svg width="251" height="300" viewBox="0 0 251 300" fill="none" xmlns="http://www.w3.org/2000/svg">
<path d="M223.638 289.091C225.787 289.091 227.915 288.668 229.9 287.845C231.885 287.023 233.689 285.818 235.209 284.298C236.728 282.779 237.933 280.975 238.756 278.99C239.578 277.004 240.001 274.877 240.001 272.728V79.8101L173.454 10.9091H27.2723C22.9325 10.9091 18.7705 12.6331 15.7018 15.7018C12.6331 18.7705 10.9091 22.9325 10.9091 27.2723V272.725C10.9087 274.874 11.3317 277.002 12.1538 278.988C12.976 280.973 14.1812 282.777 15.7007 284.297C17.2202 285.817 19.0242 287.023 21.0097 287.845C22.9951 288.668 25.1232 289.091 27.2723 289.091H223.638ZM223.638 300H27.2723C20.0414 299.991 13.1093 297.115 7.99658 292.001C2.88386 286.888 0.00805027 279.956 0 272.725L0 27.2723C0.00882923 20.0419 2.88499 13.1102 7.99762 7.99762C13.1103 2.88498 20.0419 0.00882923 27.2723 0H178.084L250.908 75.4031V272.725C250.899 279.955 248.023 286.886 242.911 291.998C237.799 297.111 230.868 299.987 223.638 299.997V300Z" fill="white"/>
<path d="M203.454 83.9935C200.181 83.9935 183.272 83.5028 174.2 73.6623C169.509 67.9714 166.621 61.0115 165.904 53.6713C165.346 49.9511 165.098 46.1909 165.164 42.4295V1.39062H176.068V42.7298C175.905 47.2438 176.69 60.2823 182.216 66.2712C187.671 72.1678 199.585 73.1933 203.718 73.0893H247.386V83.9984H203.45L203.454 83.9935Z" fill="white"/>
<path d="M59.9994 103.63V201.811H158.18V103.63H59.9994ZM49.0903 92.7207H169.09V212.72H49.0903V92.7207Z" fill="white"/>
<path d="M201.353 245.567H79.1724V208.117H90.0814V234.658H190.445V137.618H165.763V126.708H201.353V245.567Z" fill="white"/>
<path d="M116.65 87.267H49.0903V76.3579H116.65V87.267Z" fill="white"/>
<path d="M141.146 87.267H130.237V76.3579H141.146V87.267Z" fill="white"/>
</svg>
