<svg width="287" height="300" viewBox="0 0 287 300" fill="none" xmlns="http://www.w3.org/2000/svg">
<path d="M25.3875 11.1107C21.3475 11.1107 17.473 12.8666 14.6163 15.9923C11.7596 19.1179 10.1547 23.3572 10.1547 27.7776V272.221C10.1547 276.642 11.7596 280.881 14.6163 284.007C17.473 287.132 21.3475 288.888 25.3875 288.888H182.791C186.831 288.888 190.705 287.132 193.562 284.007C196.419 280.881 198.024 276.642 198.024 272.221V27.7776C198.024 25.5888 197.63 23.4215 196.864 21.3994C196.099 19.3773 194.977 17.54 193.562 15.9923C192.148 14.4446 190.468 13.217 188.62 12.3794C186.772 11.5418 184.791 11.1107 182.791 11.1107H25.3875V11.1107ZM25.3875 0H182.791C186.125 0 189.426 0.718488 192.506 2.11444C195.586 3.5104 198.385 5.55648 200.743 8.13586C203.1 10.7152 204.97 13.7774 206.246 17.1476C207.522 20.5177 208.178 24.1298 208.178 27.7776V272.221C208.178 275.869 207.522 279.481 206.246 282.851C204.97 286.221 203.1 289.284 200.743 291.863C198.385 294.442 195.586 296.488 192.506 297.884C189.426 299.28 186.125 299.999 182.791 299.999H25.3875C18.6543 299.999 12.1969 297.072 7.43584 291.863C2.67475 286.654 0 279.588 0 272.221L0 27.7776C0 20.4105 2.67475 13.3452 7.43584 8.13586C12.1969 2.92656 18.6543 0 25.3875 0V0Z" fill="white"/>
<path d="M30.4647 44.4437V238.888H177.713V44.4437H30.4647ZM20.3101 33.333H187.869V249.999H20.3101V33.333Z" fill="white"/>
<path d="M104.093 261.11C102.587 261.109 101.114 261.597 99.8612 262.512C98.6085 263.427 97.6318 264.728 97.0547 266.25C96.4777 267.772 96.3261 269.448 96.6193 271.064C96.9125 272.681 97.6372 274.166 98.7018 275.332C99.7663 276.498 101.123 277.292 102.6 277.615C104.077 277.937 105.609 277.773 107.001 277.143C108.393 276.513 109.582 275.446 110.42 274.076C111.257 272.706 111.705 271.095 111.706 269.447C111.706 268.353 111.51 267.269 111.127 266.258C110.745 265.246 110.185 264.327 109.478 263.553C108.771 262.779 107.931 262.165 107.007 261.745C106.083 261.326 105.093 261.11 104.093 261.11V261.11ZM104.093 255.554C106.604 255.554 109.059 256.369 111.147 257.896C113.235 259.422 114.863 261.592 115.824 264.13C116.785 266.669 117.036 269.462 116.546 272.157C116.056 274.852 114.847 277.328 113.071 279.271C111.296 281.214 109.033 282.537 106.57 283.073C104.107 283.609 101.554 283.334 99.2338 282.282C96.9137 281.231 94.9306 279.45 93.5354 277.165C92.1402 274.881 91.3955 272.195 91.3955 269.447C91.3955 265.762 92.7333 262.229 95.1145 259.623C97.4957 257.018 100.725 255.554 104.093 255.554V255.554Z" fill="white"/>
<path d="M170.096 78.9857H99.0112V67.875H170.096V78.9857Z" fill="white"/>
<path d="M170.096 112.319H99.0112V101.208H170.096V112.319Z" fill="white"/>
<path d="M170.097 141.666H43.1587V130.555H170.097V141.666Z" fill="white"/>
<path d="M139.632 174.999H43.1587V163.889H139.632V174.999Z" fill="white"/>
<path d="M119.321 202.777H43.1587V191.667H119.321V202.777Z" fill="white"/>
<path d="M119.322 230.555H63.4688V219.444H119.322V230.555Z" fill="white"/>
<path d="M53.3134 230.555H43.1587V219.444H53.3134V230.555Z" fill="white"/>
<path d="M42.3784 113.404V53.9907H85.3374V61.002H50.2407V79.1987H83.1084V86.1694H50.2407V106.393H86.7153V113.404H42.3784Z" fill="white"/>
<path d="M248.89 205.85C244.582 195.808 237.749 187.316 229.191 181.367C220.633 175.419 210.703 172.26 200.565 172.26C190.426 172.26 180.496 175.419 171.938 181.367C163.38 187.316 156.547 195.808 152.239 205.85C157.585 197.207 164.785 190.13 173.21 185.238C181.634 180.345 191.027 177.787 200.565 177.787C210.102 177.787 219.495 180.345 227.92 185.238C236.344 190.13 243.545 197.207 248.89 205.85V205.85ZM152.996 250.394C142.587 245.3 137.093 238.444 137.093 230.556C137.093 212.138 143.78 194.474 155.683 181.451C167.586 168.428 183.729 161.111 200.563 161.111C217.396 161.111 233.539 168.428 245.442 181.451C257.345 194.474 264.032 212.138 264.032 230.556C264.032 238.444 258.533 245.3 248.134 250.383C248.579 247.503 248.802 244.587 248.799 241.666C248.799 227.669 243.717 214.245 234.671 204.347C225.625 194.449 213.356 188.889 200.563 188.889C187.769 188.889 175.5 194.449 166.454 204.347C157.408 214.245 152.326 227.669 152.326 241.666C152.32 244.589 152.544 247.508 152.996 250.389V250.394Z" fill="white"/>
<path d="M145.852 244.495C140.72 244.883 135.915 247.388 132.405 251.503C128.895 255.617 126.944 261.036 126.944 266.664C126.944 272.292 128.895 277.711 132.405 281.826C135.915 285.941 140.72 288.445 145.852 288.833C146.896 286.84 147.656 284.683 148.107 282.439C149.215 277.271 149.754 271.976 149.711 266.667C149.754 261.359 149.215 256.064 148.107 250.895C147.656 248.651 146.896 246.495 145.852 244.501V244.495ZM147.248 233.333C164.075 233.333 164.075 300 147.248 300C139.168 300 131.419 296.488 125.706 290.237C119.992 283.986 116.783 275.507 116.783 266.667C116.783 257.826 119.992 249.348 125.706 243.097C131.419 236.845 139.168 233.333 147.248 233.333V233.333Z" fill="white"/>
<path d="M257.74 244.495C256.696 246.489 255.936 248.645 255.485 250.889C254.374 256.059 253.834 261.356 253.875 266.667C253.833 271.976 254.371 277.271 255.48 282.439C255.93 284.683 256.69 286.84 257.734 288.833C262.866 288.445 267.672 285.941 271.181 281.826C274.691 277.711 276.643 272.292 276.643 266.664C276.643 261.036 274.691 255.617 271.181 251.503C267.672 247.388 262.866 244.883 257.734 244.495H257.74ZM256.338 233.333C264.418 233.333 272.167 236.845 277.881 243.097C283.594 249.348 286.804 257.826 286.804 266.667C286.804 275.507 283.594 283.986 277.881 290.237C272.167 296.488 264.418 300 256.338 300C239.517 300 239.517 233.333 256.338 233.333Z" fill="white"/>
</svg>
