<svg width="228" height="300" viewBox="0 0 228 300" fill="none" xmlns="http://www.w3.org/2000/svg">
<path d="M160.023 5.99993V57.8638C160.023 63.8816 164.902 68.7601 170.92 68.7601H221.893L221.893 286.27C221.893 290.539 218.432 294 214.163 294H13.73C9.46083 294 6 290.539 6 286.27L6 13.73C6 9.46083 9.46083 6 13.73 5.99999L160.023 5.99993ZM172.023 56.7601V14.6329L213.553 56.7601L172.023 56.7601Z" stroke="white" stroke-width="12"/>
<circle cx="65.4642" cy="237.342" r="12.5507" stroke="white" stroke-width="15.0252"/>
<path d="M170.797 208.919V129.223M170.797 129.223V107.641C170.797 102.423 165.608 98.7938 160.706 100.584L82.6601 129.092C79.6965 130.174 77.7251 132.993 77.7251 136.149V162.104M170.797 129.223L77.7251 162.104M77.7251 162.104V231.768" stroke="white" stroke-width="15.0252" stroke-linejoin="round"/>
<circle cx="157.422" cy="209.476" r="12.5507" stroke="white" stroke-width="15.0252"/>
</svg>
