<svg width="229" height="301" viewBox="0 0 229 301" fill="none" xmlns="http://www.w3.org/2000/svg">
<rect x="6" y="6" width="215.893" height="288" rx="7.73" stroke="white" stroke-width="12"/>
<path d="M101.208 245.608L97.0452 249.929L101.208 245.608ZM109.452 245.685L113.533 250.082L109.452 245.685ZM74.2314 227.528L78.3351 231.905L74.2314 227.528ZM157.174 201.396L153.093 196.998L157.174 201.396ZM220.661 253.405L224.771 249.033L220.661 253.405ZM224.771 249.033L169.475 197.051L161.256 205.794L216.552 257.776L224.771 249.033ZM228.552 288.659V257.776H216.552V288.659H228.552ZM147.143 300.659H216.552V288.659H147.143V300.659ZM17.7992 300.659H147.142V288.659H17.7992V300.659ZM70.1277 223.151L9.5918 279.904L17.7992 288.659L78.3351 231.905L70.1277 223.151ZM105.371 241.287L86.6604 223.263L78.3351 231.905L97.0452 249.929L105.371 241.287ZM153.093 196.998L105.371 241.287L113.533 250.082L161.256 205.794L153.093 196.998ZM97.0452 249.929C101.63 254.346 108.867 254.413 113.533 250.082L105.371 241.287L105.371 241.287L97.0452 249.929ZM78.3351 231.905L78.3351 231.905L86.6604 223.263C82.0584 218.83 74.7894 218.78 70.1277 223.151L78.3351 231.905ZM17.7992 288.659C17.7659 288.659 17.7475 288.656 17.7416 288.655C17.7357 288.654 17.7379 288.654 17.7463 288.657C17.7545 288.66 17.765 288.664 17.7765 288.67C17.7879 288.676 17.7978 288.682 17.8059 288.688C17.8221 288.699 17.8257 288.705 17.8213 288.7C17.8191 288.697 17.8156 288.692 17.8114 288.684C17.8072 288.677 17.803 288.668 17.7992 288.659C17.7954 288.649 17.7925 288.64 17.7905 288.632C17.7885 288.623 17.7876 288.617 17.7873 288.614C17.7866 288.607 17.7883 288.614 17.7844 288.633C17.7825 288.643 17.7795 288.654 17.7752 288.666C17.7707 288.678 17.7659 288.689 17.7617 288.696C17.7575 288.704 17.7558 288.705 17.7595 288.701C17.7632 288.696 17.7749 288.682 17.7992 288.659L9.5918 279.904C1.65573 287.345 6.92076 300.659 17.7992 300.659V288.659ZM151.307 290.34C150.213 289.285 148.729 288.659 147.142 288.659V300.659C145.555 300.659 144.071 300.033 142.978 298.978L151.307 290.34ZM147.143 288.659C148.696 288.659 150.189 289.262 151.307 290.34L142.978 298.978C144.096 300.057 145.589 300.659 147.143 300.659V288.659ZM216.552 288.659L216.552 288.659V300.659C223.179 300.659 228.552 295.287 228.552 288.659H216.552ZM169.475 197.051C164.877 192.729 157.718 192.706 153.093 196.998L161.256 205.794L161.256 205.794L169.475 197.051ZM216.552 257.776L216.552 257.776H228.552C228.552 254.465 227.184 251.301 224.771 249.033L216.552 257.776Z" fill="white"/>
<circle cx="52.1523" cy="54.8227" r="23.0068" stroke="white" stroke-width="12"/>
</svg>
