<svg width="35" height="35" viewBox="0 0 35 35" fill="none" xmlns="http://www.w3.org/2000/svg">
<path d="M7.29171 13.1248C7.67848 13.1248 8.04941 13.2785 8.3229 13.552C8.5964 13.8255 8.75004 14.1964 8.75004 14.5832C11.0413 14.5798 13.2665 15.3506 15.0646 16.7707H18.2292C20.1732 16.7707 21.9188 17.6165 23.1205 18.9582H27.7084C29.0869 18.9578 30.4373 19.3482 31.6029 20.0841C32.7686 20.82 33.7017 21.8712 34.2942 23.1159C30.8453 27.6673 25.2613 30.6248 18.9584 30.6248C14.8896 30.6248 11.448 29.7455 8.66254 28.2069C8.56052 28.4885 8.37414 28.7317 8.12882 28.9034C7.88349 29.0751 7.59116 29.167 7.29171 29.1665H2.91671C2.52993 29.1665 2.159 29.0129 1.88551 28.7394C1.61202 28.4659 1.45837 28.0949 1.45837 27.7082V14.5832C1.45837 14.1964 1.61202 13.8255 1.88551 13.552C2.159 13.2785 2.52993 13.1248 2.91671 13.1248H7.29171ZM8.7515 17.4998L8.75004 24.8236L8.81567 24.8703C11.4334 26.7078 14.843 27.7082 18.9584 27.7082C23.3392 27.7082 27.4152 26.0223 30.3844 23.1436L30.5784 22.9496L30.4034 22.8038C29.7148 22.2645 28.88 21.9444 28.0073 21.885L27.7084 21.8748H24.6298C24.7348 22.3444 24.7917 22.8315 24.7917 23.3332V24.7915H11.6667V21.8748L21.5688 21.8734L21.5192 21.7596C21.2397 21.1756 20.8098 20.6765 20.2737 20.3136C19.7375 19.9507 19.1144 19.7371 18.4684 19.6946L18.2292 19.6873H13.9563C13.2786 18.9942 12.4692 18.4436 11.5756 18.068C10.682 17.6923 9.7223 17.4991 8.75296 17.4998H8.7515ZM5.83337 16.0415H4.37504V26.2498H5.83337V16.0415ZM26.25 7.2915C27.4104 7.2915 28.5232 7.75244 29.3436 8.57291C30.1641 9.39338 30.625 10.5062 30.625 11.6665C30.625 12.8268 30.1641 13.9396 29.3436 14.7601C28.5232 15.5806 27.4104 16.0415 26.25 16.0415C25.0897 16.0415 23.9769 15.5806 23.1564 14.7601C22.336 13.9396 21.875 12.8268 21.875 11.6665C21.875 10.5062 22.336 9.39338 23.1564 8.57291C23.9769 7.75244 25.0897 7.2915 26.25 7.2915ZM26.25 10.2082C25.8633 10.2082 25.4923 10.3618 25.2188 10.6353C24.9454 10.9088 24.7917 11.2797 24.7917 11.6665C24.7917 12.0533 24.9454 12.4242 25.2188 12.6977C25.4923 12.9712 25.8633 13.1248 26.25 13.1248C26.6368 13.1248 27.0077 12.9712 27.2812 12.6977C27.5547 12.4242 27.7084 12.0533 27.7084 11.6665C27.7084 11.2797 27.5547 10.9088 27.2812 10.6353C27.0077 10.3618 26.6368 10.2082 26.25 10.2082ZM16.0417 2.9165C17.202 2.9165 18.3148 3.37744 19.1353 4.19791C19.9558 5.01838 20.4167 6.13118 20.4167 7.2915C20.4167 8.45183 19.9558 9.56462 19.1353 10.3851C18.3148 11.2056 17.202 11.6665 16.0417 11.6665C14.8814 11.6665 13.7686 11.2056 12.9481 10.3851C12.1276 9.56462 11.6667 8.45183 11.6667 7.2915C11.6667 6.13118 12.1276 5.01838 12.9481 4.19791C13.7686 3.37744 14.8814 2.9165 16.0417 2.9165V2.9165ZM16.0417 5.83317C15.6549 5.83317 15.284 5.98682 15.0105 6.26031C14.737 6.5338 14.5834 6.90473 14.5834 7.2915C14.5834 7.67828 14.737 8.04921 15.0105 8.3227C15.284 8.59619 15.6549 8.74984 16.0417 8.74984C16.4285 8.74984 16.7994 8.59619 17.0729 8.3227C17.3464 8.04921 17.5 7.67828 17.5 7.2915C17.5 6.90473 17.3464 6.5338 17.0729 6.26031C16.7994 5.98682 16.4285 5.83317 16.0417 5.83317V5.83317Z" fill="#302F91"/>
</svg>
