<svg xmlns="http://www.w3.org/2000/svg" width="71" height="17" viewBox="0 0 71 17"><defs><style>.a{fill:#ec450a;}.b,.c{fill:#fff;}.b{font-size:12px;font-family:Poppins-Regular, Poppins;}</style></defs><g transform="translate(-684 -287)"><path class="a" d="M0,0H71a0,0,0,0,1,0,0V11a5,5,0,0,1-5,5H5a5,5,0,0,1-5-5V0A0,0,0,0,1,0,0Z" transform="translate(684 288)"/><text class="b" transform="translate(714 300)"><tspan x="0" y="0">Audio</tspan></text><path class="c" d="M7.834,1A4.834,4.834,0,0,0,3,5.834v3.76A1.609,1.609,0,0,0,4.611,11.2H6.222v-4.3H4.074V5.834a3.76,3.76,0,1,1,7.519,0V6.908H9.445v4.3h1.611a1.609,1.609,0,0,0,1.611-1.611V5.834A4.834,4.834,0,0,0,7.834,1Z" transform="translate(692 290)"/></g></svg>