<svg width="35" height="35" viewBox="0 0 35 35" fill="none" xmlns="http://www.w3.org/2000/svg">
<path d="M29.1667 2.91675C29.9717 2.91675 30.625 3.57008 30.625 4.37508V9.85404L27.7083 12.7707V5.83342H7.29167V29.1668H27.7083V25.1447L30.625 22.228V30.6251C30.625 31.4301 29.9717 32.0834 29.1667 32.0834H5.83333C5.02833 32.0834 4.375 31.4301 4.375 30.6251V4.37508C4.375 3.57008 5.02833 2.91675 5.83333 2.91675H29.1667ZM31.7596 12.8451L33.8217 14.9072L22.4787 26.2501L20.4138 26.2472L20.4167 24.188L31.7596 12.8451V12.8451ZM18.9583 17.5001V20.4167H11.6667V17.5001H18.9583ZM23.3333 11.6667V14.5834H11.6667V11.6667H23.3333Z" fill="#302F91"/>
</svg>
