<svg width="35" height="35" viewBox="0 0 35 35" fill="none" xmlns="http://www.w3.org/2000/svg">
<path d="M17.5 32.0832C9.44559 32.0832 2.91663 25.5542 2.91663 17.4998C2.91663 9.44546 9.44559 2.9165 17.5 2.9165C25.5543 2.9165 32.0833 9.44546 32.0833 17.4998C32.0833 25.5542 25.5543 32.0832 17.5 32.0832ZM17.5 29.1665C20.5942 29.1665 23.5616 27.9373 25.7495 25.7494C27.9375 23.5615 29.1666 20.594 29.1666 17.4998C29.1666 14.4056 27.9375 11.4382 25.7495 9.25026C23.5616 7.06233 20.5942 5.83317 17.5 5.83317C14.4058 5.83317 11.4383 7.06233 9.25038 9.25026C7.06246 11.4382 5.83329 14.4056 5.83329 17.4998C5.83329 20.594 7.06246 23.5615 9.25038 25.7494C11.4383 27.9373 14.4058 29.1665 17.5 29.1665V29.1665ZM16.0416 21.8748H18.9583V24.7915H16.0416V21.8748ZM18.9583 19.4759V20.4165H16.0416V18.229C16.0416 17.8422 16.1953 17.4713 16.4688 17.1978C16.7423 16.9243 17.1132 16.7707 17.5 16.7707C17.9142 16.7706 18.32 16.653 18.67 16.4314C19.02 16.2097 19.2999 15.8933 19.4771 15.5188C19.6543 15.1443 19.7215 14.7272 19.671 14.3161C19.6204 13.9049 19.4541 13.5165 19.1914 13.1962C18.9287 12.8758 18.5805 12.6366 18.1872 12.5065C17.7939 12.3763 17.3717 12.3605 16.9697 12.4609C16.5678 12.5613 16.2026 12.7737 15.9167 13.0735C15.6308 13.3733 15.436 13.7482 15.3548 14.1544L12.4935 13.5813C12.6709 12.6948 13.0805 11.8712 13.6805 11.1949C14.2804 10.5185 15.0493 10.0136 15.9083 9.73176C16.7674 9.44992 17.6859 9.40125 18.5699 9.59073C19.454 9.78021 20.2718 10.201 20.9399 10.8102C21.608 11.4194 22.1023 12.195 22.3724 13.0578C22.6425 13.9207 22.6786 14.8398 22.4771 15.7211C22.2755 16.6025 21.8435 17.4145 21.2253 18.0742C20.6071 18.7339 19.8247 19.2176 18.9583 19.4759V19.4759Z" fill="#302F91"/>
</svg>
