<svg width="228" height="300" viewBox="0 0 228 300" fill="none" xmlns="http://www.w3.org/2000/svg">
<path d="M27.7779 11.1113C23.3577 11.1113 19.1185 12.8673 15.9929 15.9929C12.8673 19.1185 11.1113 23.3577 11.1113 27.7779V272.222C11.1113 276.642 12.8673 280.882 15.9929 284.007C19.1185 287.133 23.3577 288.889 27.7779 288.889H199.998C204.418 288.889 208.657 287.133 211.783 284.007C214.909 280.882 216.664 276.642 216.664 272.222V27.7779C216.664 23.3577 214.909 19.1185 211.783 15.9929C208.657 12.8673 204.418 11.1113 199.998 11.1113H27.7779V11.1113ZM27.7779 0H199.998C207.365 0 214.43 2.92659 219.64 8.13596C224.849 13.3453 227.776 20.4107 227.776 27.7779V272.222C227.776 279.589 224.849 286.654 219.64 291.864C214.431 297.073 207.366 300 199.999 300H27.7779C24.1298 300 20.5175 299.281 17.1471 297.885C13.7768 296.489 10.7145 294.443 8.13502 291.863C5.55556 289.283 3.50951 286.221 2.1137 282.85C0.717887 279.48 -0.00035085 275.867 1.28571e-07 272.219V27.7779C1.28571e-07 20.4107 2.92659 13.3453 8.13596 8.13596C13.3453 2.92659 20.4107 0 27.7779 0V0Z" fill="white"/>
<path d="M33.333 44.4443V238.886H194.442V44.4443H33.333ZM22.2217 33.333H205.555V249.997H22.2217V33.333Z" fill="white"/>
<path d="M140.306 18.7075H87.747C85.5331 18.7075 83.7383 20.5023 83.7383 22.7163C83.7383 24.9302 85.5331 26.725 87.747 26.725H140.306C142.52 26.725 144.315 24.9302 144.315 22.7163C144.315 20.5023 142.52 18.7075 140.306 18.7075Z" fill="white"/>
<path d="M119.443 74.999H41.666V63.8877H119.443V74.999Z" fill="white"/>
<path d="M119.443 124.999H41.666V113.887H119.443V124.999Z" fill="white"/>
<path d="M119.443 97.2207H80.5542V86.1094H119.443V97.2207Z" fill="white"/>
<path d="M186.109 147.22H80.5542V136.109H186.109V147.22Z" fill="white"/>
<path d="M186.109 197.22H80.5542V186.109H186.109V197.22Z" fill="white"/>
<path d="M69.4439 97.2207H41.666V86.1094H69.4439V97.2207Z" fill="white"/>
<path d="M69.4439 147.22H41.666V136.109H69.4439V147.22Z" fill="white"/>
<path d="M186.109 174.998H158.331V163.886H186.109V174.998Z" fill="white"/>
<path d="M69.4439 197.22H41.666V186.109H69.4439V197.22Z" fill="white"/>
<path d="M186.109 224.997H158.331V213.886H186.109V224.997Z" fill="white"/>
<path d="M147.221 174.998H41.666V163.886H147.221V174.998Z" fill="white"/>
<path d="M147.221 224.997H41.666V213.886H147.221V224.997Z" fill="white"/>
<path d="M135.242 34.5776H186.519V123.133L161.448 96.8379L135.242 122.46V34.5776ZM175.408 45.689H146.354V96.0548L161.726 81.0274L175.409 95.3769L175.408 45.689Z" fill="white"/>
<path d="M166.585 61.4671V40.0872C166.585 37.1352 164.192 34.7422 161.24 34.7422C158.289 34.7422 155.895 37.1352 155.895 40.0872V61.4671C155.895 64.4191 158.289 66.8121 161.24 66.8121C164.192 66.8121 166.585 64.4191 166.585 61.4671Z" fill="white"/>
<path d="M113.887 261.108C112.239 261.108 110.628 261.597 109.258 262.512C107.888 263.428 106.82 264.729 106.189 266.252C105.558 267.775 105.393 269.45 105.715 271.066C106.036 272.683 106.83 274.168 107.995 275.333C109.161 276.498 110.645 277.292 112.262 277.614C113.878 277.935 115.554 277.77 117.076 277.139C118.599 276.509 119.9 275.441 120.816 274.07C121.732 272.7 122.22 271.089 122.22 269.441C122.22 268.347 122.005 267.263 121.586 266.252C121.167 265.241 120.553 264.322 119.78 263.549C119.006 262.775 118.087 262.161 117.076 261.742C116.065 261.323 114.982 261.108 113.887 261.108ZM113.887 255.553C116.634 255.553 119.32 256.367 121.604 257.893C123.888 259.42 125.668 261.589 126.719 264.127C127.77 266.664 128.045 269.457 127.51 272.151C126.974 274.845 125.651 277.32 123.708 279.263C121.766 281.205 119.291 282.528 116.597 283.064C113.903 283.6 111.11 283.325 108.572 282.273C106.035 281.222 103.865 279.442 102.339 277.158C100.813 274.874 99.9985 272.189 99.9985 269.442C99.9985 265.758 101.462 262.225 104.067 259.621C106.671 257.016 110.204 255.553 113.887 255.553V255.553Z" fill="white"/>
</svg>
