<svg width="257" height="298" viewBox="0 0 257 298" fill="none" xmlns="http://www.w3.org/2000/svg">
<rect x="6" y="291.469" width="182.469" height="244" rx="16.7344" transform="rotate(-90 6 291.469)" stroke="white" stroke-width="12"/>
<path d="M128 193.018L128 218.857C128 221.368 125.964 223.404 123.453 223.404L10.624 223.404C8.11285 223.404 6.07715 225.439 6.07715 227.95L6.07715 250.762C6.07715 253.273 8.11286 255.309 10.624 255.309L123.453 255.309C125.964 255.309 128 257.344 128 259.855L128 287.225C128 289.736 130.036 291.771 132.547 291.771L152.32 291.771C154.831 291.771 156.866 289.736 156.866 287.225L156.866 227.95C156.866 225.439 158.902 223.404 161.413 223.404L229.784 223.404C231.072 223.404 232.299 223.949 233.161 224.905L250.303 243.914M128 193.018L128 183.511C128 181 125.964 178.964 123.453 178.964L79.2818 178.964C77.9048 178.964 76.6019 178.34 75.7388 177.267L26.3894 115.914V115.914C24.1774 113.164 26.135 109.077 29.6642 109.077L175.489 109.077C178 109.077 180.036 111.113 180.036 113.624L180.036 188.471C180.036 190.982 178 193.018 175.489 193.018L128 193.018ZM250.303 243.914L250.303 131.487M250.303 243.914L213.111 202.672C212.358 201.836 211.941 200.751 211.941 199.626L211.941 113.244C211.941 110.733 213.976 108.697 216.488 108.697L226.374 108.697" stroke="white" stroke-width="12" stroke-linejoin="round"/>
<line x1="139" y1="56" x2="139" y2="146" stroke="white" stroke-width="12"/>
<circle cx="139" cy="32" r="26" stroke="white" stroke-width="12"/>
</svg>
