<svg width="35" height="35" viewBox="0 0 35 35" fill="none" xmlns="http://www.w3.org/2000/svg">
<path d="M29.1667 32.0832H5.83333C5.44656 32.0832 5.07563 31.9295 4.80214 31.656C4.52865 31.3825 4.375 31.0116 4.375 30.6248V4.37484C4.375 3.98806 4.52865 3.61713 4.80214 3.34364C5.07563 3.07015 5.44656 2.9165 5.83333 2.9165H29.1667C29.5534 2.9165 29.9244 3.07015 30.1979 3.34364C30.4714 3.61713 30.625 3.98806 30.625 4.37484V30.6248C30.625 31.0116 30.4714 31.3825 30.1979 31.656C29.9244 31.9295 29.5534 32.0832 29.1667 32.0832ZM10.2083 5.83317H7.29167V29.1665H27.7083V5.83317H20.4167V18.9582L15.3125 16.0415L10.2083 18.9582V5.83317Z" fill="#302F91"/>
</svg>
