<svg width="35" height="35" viewBox="0 0 35 35" fill="none" xmlns="http://www.w3.org/2000/svg">
<path d="M2.91663 17.5002C2.91663 16.2388 3.07704 15.0167 3.37746 13.8486C4.18314 13.8909 4.98484 13.7097 5.69394 13.3248C6.40303 12.94 6.99191 12.3666 7.39547 11.668C7.79903 10.9694 8.00155 10.1728 7.98065 9.36627C7.95975 8.55975 7.71624 7.77472 7.27704 7.09795C9.04008 5.36336 11.2157 4.10617 13.5989 3.44482C13.9649 4.16447 14.523 4.7688 15.2112 5.1909C15.8995 5.61301 16.6911 5.83642 17.4985 5.83642C18.3059 5.83642 19.0975 5.61301 19.7858 5.1909C20.474 4.7688 21.0321 4.16447 21.3981 3.44482C23.7813 4.10617 25.9569 5.36336 27.72 7.09795C27.2803 7.77484 27.0364 8.56018 27.0153 9.36706C26.9943 10.174 27.1969 10.9709 27.6007 11.6698C28.0044 12.3687 28.5937 12.9423 29.3033 13.3271C30.0128 13.7119 30.815 13.8929 31.621 13.85C31.9214 15.0167 32.0818 16.2388 32.0818 17.5002C32.0818 18.7617 31.9214 19.9838 31.621 21.1519C30.8152 21.1093 30.0133 21.2903 29.304 21.675C28.5947 22.0597 28.0056 22.6331 27.6018 23.3318C27.1981 24.0305 26.9954 24.8272 27.0163 25.6338C27.0371 26.4405 27.2807 27.2257 27.72 27.9025C25.9569 29.6371 23.7813 30.8943 21.3981 31.5557C21.0321 30.836 20.474 30.2317 19.7858 29.8096C19.0975 29.3875 18.3059 29.1641 17.4985 29.1641C16.6911 29.1641 15.8995 29.3875 15.2112 29.8096C14.523 30.2317 13.9649 30.836 13.5989 31.5557C11.2157 30.8943 9.04008 29.6371 7.27704 27.9025C7.71674 27.2256 7.96061 26.4403 7.98166 25.6334C8.00272 24.8265 7.80014 24.0295 7.39635 23.3306C6.99256 22.6317 6.40329 22.0582 5.69374 21.6734C4.98419 21.2886 4.18203 21.1076 3.376 21.1504C3.07704 19.9852 2.91663 18.7632 2.91663 17.5002ZM9.92246 21.8752C10.8412 23.4663 11.1037 25.2965 10.745 27.0144C11.34 27.4373 11.9729 27.8034 12.6364 28.1082C13.9732 26.9106 15.7052 26.249 17.5 26.2502C19.3375 26.2502 21.0554 26.9371 22.3635 28.1082C23.027 27.8034 23.66 27.4373 24.255 27.0144C23.8866 25.2585 24.1795 23.4285 25.0775 21.8752C25.9738 20.3212 27.4123 19.1528 29.117 18.594C29.1845 17.8664 29.1845 17.1341 29.117 16.4065C27.4117 15.848 25.9727 14.6796 25.076 13.1252C24.1781 11.572 23.8852 9.74196 24.2535 7.98607C23.6587 7.56305 23.0254 7.19685 22.362 6.89232C21.0256 8.08952 19.2942 8.75113 17.5 8.75024C15.7052 8.75149 13.9732 8.08985 12.6364 6.89232C11.9731 7.19686 11.3398 7.56305 10.745 7.98607C11.1133 9.74196 10.8204 11.572 9.92246 13.1252C9.02613 14.6793 7.58764 15.8477 5.88288 16.4065C5.81543 17.1341 5.81543 17.8664 5.88288 18.594C7.58819 19.1524 9.02723 20.3209 9.92392 21.8752H9.92246ZM17.5 21.8752C16.3396 21.8752 15.2268 21.4143 14.4064 20.5938C13.5859 19.7734 13.125 18.6606 13.125 17.5002C13.125 16.3399 13.5859 15.2271 14.4064 14.4066C15.2268 13.5862 16.3396 13.1252 17.5 13.1252C18.6603 13.1252 19.7731 13.5862 20.5936 14.4066C21.414 15.2271 21.875 16.3399 21.875 17.5002C21.875 18.6606 21.414 19.7734 20.5936 20.5938C19.7731 21.4143 18.6603 21.8752 17.5 21.8752ZM17.5 18.9586C17.8867 18.9586 18.2577 18.8049 18.5312 18.5314C18.8046 18.2579 18.9583 17.887 18.9583 17.5002C18.9583 17.1135 18.8046 16.7425 18.5312 16.469C18.2577 16.1956 17.8867 16.0419 17.5 16.0419C17.1132 16.0419 16.7423 16.1956 16.4688 16.469C16.1953 16.7425 16.0416 17.1135 16.0416 17.5002C16.0416 17.887 16.1953 18.2579 16.4688 18.5314C16.7423 18.8049 17.1132 18.9586 17.5 18.9586V18.9586Z" fill="#302F91"/>
</svg>
