<svg xmlns="http://www.w3.org/2000/svg" width="71" height="17" viewBox="0 0 71 17"><defs><style>.a{fill:#ec450a;}.b,.c{fill:#fff;}.b{font-size:12px;font-family:Poppins-Regular, Poppins;}</style></defs><g transform="translate(-684 -287)"><path class="a" d="M0,0H71a0,0,0,0,1,0,0V11a5,5,0,0,1-5,5H5a5,5,0,0,1-5-5V0A0,0,0,0,1,0,0Z" transform="translate(684 288)"/><text class="b" transform="translate(714 300)"><tspan x="0" y="0">Slides</tspan></text><g transform="translate(695 291)"><path class="c" d="M181,152.518v1.166h1.166A1.5,1.5,0,0,0,181,152.518Z" transform="translate(-177.393 -149.478)"/><path class="c" d="M92.2,152.518a1.495,1.495,0,1,0,1.764,1.764H92.2Z" transform="translate(-89.186 -149.478)"/><path class="c" d="M6.6,1.216V0H3.607V1.216H0V7.793H10.2V1.216ZM4.205.6H6v.618H4.205Zm-.9,6A2.093,2.093,0,1,1,5.4,4.5,2.1,2.1,0,0,1,3.308,6.6Zm5.68,0H6V6h2.99Zm0-1.2H6V4.8h2.99Zm0-1.2H6v-.6h2.99Zm0-1.2H6v-.6h2.99Z"/><path class="c" d="M96.625,422.261l.374.467L99.159,421H98.2Z" transform="translate(-94.699 -412.609)"/><path class="c" d="M288.227,421l2.16,1.728.374-.467L289.185,421Z" transform="translate(-282.482 -412.609)"/><path class="c" d="M241,421h.6v1.814H241Z" transform="translate(-236.197 -412.609)"/></g></g></svg>