<svg width="35" height="35" viewBox="0 0 35 35" fill="none" xmlns="http://www.w3.org/2000/svg">
<path d="M17.5001 16.0417C19.434 16.0417 21.2886 16.81 22.6561 18.1774C24.0235 19.5449 24.7918 21.3995 24.7918 23.3334V32.0834H21.8751V23.3334C21.8751 22.2175 21.4488 21.1437 20.6832 20.3318C19.9176 19.5199 18.8708 19.0312 17.7567 18.9657L17.5001 18.9584C16.3842 18.9584 15.3104 19.3847 14.4985 20.1503C13.6865 20.9159 13.1978 21.9627 13.1324 23.0768L13.1251 23.3334V32.0834H10.2084V23.3334C10.2084 21.3995 10.9766 19.5449 12.3441 18.1774C13.7115 16.81 15.5662 16.0417 17.5001 16.0417ZM8.02092 20.4167C8.42779 20.4167 8.823 20.4649 9.20217 20.5538C8.95282 21.2961 8.80516 22.0688 8.76321 22.8507L8.75008 23.3334V23.4588C8.58245 23.3989 8.40809 23.3597 8.23092 23.3422L8.02092 23.3334C7.47713 23.3334 6.95284 23.536 6.5503 23.9016C6.14776 24.2672 5.89583 24.7696 5.84362 25.3109L5.83342 25.5209V32.0834H2.91675V25.5209C2.91675 24.1672 3.45451 22.8689 4.41172 21.9117C5.36894 20.9545 6.66721 20.4167 8.02092 20.4167V20.4167ZM26.9793 20.4167C28.333 20.4167 29.6312 20.9545 30.5884 21.9117C31.5457 22.8689 32.0834 24.1672 32.0834 25.5209V32.0834H29.1668V25.5209C29.1667 24.9771 28.9642 24.4528 28.5986 24.0503C28.233 23.6478 27.7305 23.3958 27.1892 23.3436L26.9793 23.3334C26.724 23.3334 26.479 23.3772 26.2501 23.4574V23.3334C26.2501 22.3622 26.0926 21.4288 25.7995 20.5567C26.1772 20.4649 26.5724 20.4167 26.9793 20.4167ZM8.02092 11.6667C8.98785 11.6667 9.91518 12.0509 10.5989 12.7346C11.2826 13.4183 11.6667 14.3456 11.6667 15.3126C11.6667 16.2795 11.2826 17.2069 10.5989 17.8906C9.91518 18.5743 8.98785 18.9584 8.02092 18.9584C7.05398 18.9584 6.12665 18.5743 5.44292 17.8906C4.7592 17.2069 4.37508 16.2795 4.37508 15.3126C4.37508 14.3456 4.7592 13.4183 5.44292 12.7346C6.12665 12.0509 7.05398 11.6667 8.02092 11.6667V11.6667ZM26.9793 11.6667C27.9462 11.6667 28.8735 12.0509 29.5572 12.7346C30.241 13.4183 30.6251 14.3456 30.6251 15.3126C30.6251 16.2795 30.241 17.2069 29.5572 17.8906C28.8735 18.5743 27.9462 18.9584 26.9793 18.9584C26.0123 18.9584 25.085 18.5743 24.4013 17.8906C23.7175 17.2069 23.3334 16.2795 23.3334 15.3126C23.3334 14.3456 23.7175 13.4183 24.4013 12.7346C25.085 12.0509 26.0123 11.6667 26.9793 11.6667V11.6667ZM8.02092 14.5834C7.82753 14.5834 7.64206 14.6602 7.50532 14.797C7.36857 14.9337 7.29175 15.1192 7.29175 15.3126C7.29175 15.506 7.36857 15.6914 7.50532 15.8282C7.64206 15.9649 7.82753 16.0417 8.02092 16.0417C8.2143 16.0417 8.39977 15.9649 8.53651 15.8282C8.67326 15.6914 8.75008 15.506 8.75008 15.3126C8.75008 15.1192 8.67326 14.9337 8.53651 14.797C8.39977 14.6602 8.2143 14.5834 8.02092 14.5834ZM26.9793 14.5834C26.7859 14.5834 26.6004 14.6602 26.4637 14.797C26.3269 14.9337 26.2501 15.1192 26.2501 15.3126C26.2501 15.506 26.3269 15.6914 26.4637 15.8282C26.6004 15.9649 26.7859 16.0417 26.9793 16.0417C27.1726 16.0417 27.3581 15.9649 27.4948 15.8282C27.6316 15.6914 27.7084 15.506 27.7084 15.3126C27.7084 15.1192 27.6316 14.9337 27.4948 14.797C27.3581 14.6602 27.1726 14.5834 26.9793 14.5834ZM17.5001 2.91675C19.0472 2.91675 20.5309 3.53133 21.6249 4.62529C22.7188 5.71925 23.3334 7.20299 23.3334 8.75008C23.3334 10.2972 22.7188 11.7809 21.6249 12.8749C20.5309 13.9688 19.0472 14.5834 17.5001 14.5834C15.953 14.5834 14.4693 13.9688 13.3753 12.8749C12.2813 11.7809 11.6667 10.2972 11.6667 8.75008C11.6667 7.20299 12.2813 5.71925 13.3753 4.62529C14.4693 3.53133 15.953 2.91675 17.5001 2.91675V2.91675ZM17.5001 5.83342C16.7265 5.83342 15.9847 6.14071 15.4377 6.68769C14.8907 7.23467 14.5834 7.97653 14.5834 8.75008C14.5834 9.52363 14.8907 10.2655 15.4377 10.8125C15.9847 11.3595 16.7265 11.6667 17.5001 11.6667C18.2736 11.6667 19.0155 11.3595 19.5625 10.8125C20.1095 10.2655 20.4167 9.52363 20.4167 8.75008C20.4167 7.97653 20.1095 7.23467 19.5625 6.68769C19.0155 6.14071 18.2736 5.83342 17.5001 5.83342V5.83342Z" fill="#302F91"/>
</svg>
