<svg xmlns="http://www.w3.org/2000/svg" width="56.669" height="54.711" viewBox="0 0 56.669 54.711"><defs><style>.a{fill:#fff;}</style></defs><g transform="translate(0 -0.012)"><path class="a" d="M55.788,332.958l-23.677-1.625a.944.944,0,0,0-1.01.879,2.833,2.833,0,0,1-5.61,0,.945.945,0,0,0-.935-.879L1.889,332.891V331l26.444-1.823,27.323,1.889a.947.947,0,1,0,.132-1.889l-26.51-1.823v-4.24a12.5,12.5,0,0,1,8.915-1.19L51.944,325.2v.944a.944.944,0,0,0,1.889,0v-1.691a.944.944,0,0,0-.727-.944l-14.478-3.419A14.309,14.309,0,0,0,28.333,321.5a14.309,14.309,0,0,0-10.294-1.407L3.561,323.513a.944.944,0,0,0-.727.944v4.59l-1.955.132a.944.944,0,0,0-.878.944V333.9a.953.953,0,0,0,1.01.944L23.8,333.27a4.722,4.722,0,0,0,9.066,0l22.79,1.577a.947.947,0,1,0,.132-1.889ZM4.722,325.2l13.751-3.277a12.5,12.5,0,0,1,8.915,1.19v4.24L4.722,328.915Zm0,0" transform="translate(0 -281.946)"/><path class="a" d="M132.722,26.456h17a4.722,4.722,0,0,0,4.722-4.722V11.345a.944.944,0,1,0-1.889,0V21.734a2.833,2.833,0,0,1-2.833,2.833h-17a2.833,2.833,0,0,1-2.833-2.833v-17A2.833,2.833,0,0,1,132.722,1.9h17a2.833,2.833,0,0,1,2.833,2.833V7.567a.944.944,0,1,0,1.889,0V4.734A4.722,4.722,0,0,0,149.722.012h-17A4.722,4.722,0,0,0,128,4.734v17A4.722,4.722,0,0,0,132.722,26.456Zm0,0" transform="translate(-112.889)"/><path class="a" d="M184.944,57.477a.944.944,0,0,0-.944.944V62.2a.94.94,0,0,0,1.37.84l13.222-6.611a.944.944,0,0,0,0-1.681L185.37,48.136a.944.944,0,0,0-1.37.841v5.667a.944.944,0,1,0,1.889,0V50.506l10.162,5.081-10.162,5.081V58.421A.944.944,0,0,0,184.944,57.477Zm0,0" transform="translate(-162.278 -42.354)"/><path class="a" d="M232,248.956v6.611a.944.944,0,1,0,1.889,0v-6.611a.944.944,0,1,0-1.889,0Zm0,0" transform="translate(-204.611 -218.722)"/><path class="a" d="M280.779,240.625l-.944,4.722a.945.945,0,0,0,.755,1.134h.189a.945.945,0,0,0,.944-.756l.944-4.722a.963.963,0,0,0-1.889-.378Zm0,0" transform="translate(-246.779 -211.525)"/><path class="a" d="M168.59,239.844a.945.945,0,0,0-.755,1.133l.944,4.722a.945.945,0,0,0,.944.756h.189a.945.945,0,0,0,.755-1.134l-.944-4.722a.944.944,0,0,0-1.134-.755Zm0,0" transform="translate(-148.001 -211.499)"/><path class="a" d="M320.466,225.692a.888.888,0,0,0,.519.16.946.946,0,0,0,.784-.425l5.667-8.5a.945.945,0,1,0-1.568-1.039l-5.667,8.5A.945.945,0,0,0,320.466,225.692Zm0,0" transform="translate(-282.263 -189.952)"/><path class="a" d="M93.466,225.428a.946.946,0,0,0,.784.425.888.888,0,0,0,.519-.16.945.945,0,0,0,.265-1.3l-5.667-8.5a.945.945,0,1,0-1.568,1.039Zm0,0" transform="translate(-77.25 -189.952)"/><path class="a" d="M368.189,276.355a.944.944,0,0,0,1.322.189l3.778-2.833a.945.945,0,0,0-1.134-1.511l-3.778,2.833A.944.944,0,0,0,368.189,276.355Zm0,0" transform="translate(-324.555 -239.888)"/><path class="a" d="M68.155,276.544a.945.945,0,0,0,1.134-1.511L65.511,272.2a.945.945,0,0,0-1.134,1.511Zm0,0" transform="translate(-56.444 -239.888)"/></g></svg>