<svg xmlns="http://www.w3.org/2000/svg" width="67" height="17" viewBox="0 0 67 17"><defs><style>.a{fill:#ec450a;}.b,.c{fill:#fff;}.b{font-size:12px;font-family:Poppins-Regular, Poppins;}</style></defs><g transform="translate(-686 -287)"><path class="a" d="M0,0H67a0,0,0,0,1,0,0V11a5,5,0,0,1-5,5H5a5,5,0,0,1-5-5V0A0,0,0,0,1,0,0Z" transform="translate(686 288)"/><text class="b" transform="translate(715 300)"><tspan x="0" y="0">Book</tspan></text><g transform="translate(693.362 256.465)"><g transform="translate(0 35.048)"><g transform="translate(0 0)"><path class="c" d="M35.252,35.049h0a.414.414,0,0,0-.294.122.418.418,0,0,0-.124.3v6.3a.422.422,0,0,0,.421.42A5.2,5.2,0,0,1,39,43.578V36.985a.4.4,0,0,0-.058-.213A4.242,4.242,0,0,0,35.252,35.049Z" transform="translate(-33.456 -35.049)"/><path class="c" d="M160.918,41.768v-6.3a.418.418,0,0,0-.124-.3.414.414,0,0,0-.294-.122h0a4.242,4.242,0,0,0-3.691,1.723.4.4,0,0,0-.058.213v6.593a5.2,5.2,0,0,1,3.747-1.389A.422.422,0,0,0,160.918,41.768Z" transform="translate(-150.554 -35.048)"/><path class="c" d="M176.024,71.8h-.3v5.267a1.075,1.075,0,0,1-1.071,1.072,4.66,4.66,0,0,0-3.166,1.081,10.114,10.114,0,0,1,4.448.086.42.42,0,0,0,.514-.409V72.221A.42.42,0,0,0,176.024,71.8Z" transform="translate(-164.703 -70.348)"/><path class="c" d="M.725,77.068V71.8H.42a.421.421,0,0,0-.42.42V78.9a.42.42,0,0,0,.514.409,10.113,10.113,0,0,1,4.448-.086A4.66,4.66,0,0,0,1.8,78.141,1.075,1.075,0,0,1,.725,77.068Z" transform="translate(0 -70.348)"/></g></g></g></g></svg>