<svg xmlns="http://www.w3.org/2000/svg" width="51.799" height="45.868" viewBox="0 0 51.799 45.868"><defs><style>.a{fill:#999;}</style></defs><g transform="translate(0 0)"><g transform="translate(0 0)"><circle class="a" cx="3.559" cy="3.559" r="3.559" transform="translate(15.965 11.319)"/><path class="a" d="M48.734,51.975a10.959,10.959,0,0,0-6.129-2.916V30.969a7.116,7.116,0,0,0-2.026-4.943A6.906,6.906,0,0,0,35.636,24H6.969a7.116,7.116,0,0,0-4.943,2.026A6.906,6.906,0,0,0,0,30.969V60.477a7.116,7.116,0,0,0,2.026,4.943,6.906,6.906,0,0,0,4.943,2.026H34.7a10.457,10.457,0,0,0,14.037-15.47ZM2.62,30.969A4.137,4.137,0,0,1,3.9,27.954a4.337,4.337,0,0,1,3.064-1.285H35.636a4.388,4.388,0,0,1,4.35,4.35V46.44l-7.315-7.315a1.327,1.327,0,0,0-1.878,0L19.771,50.2l-7.463-7.513a1.327,1.327,0,0,0-1.878,0L2.62,50.591Zm4.3,33.956v-.1a4.337,4.337,0,0,1-3.064-1.285A4.511,4.511,0,0,1,2.62,60.477V54.348l8.748-8.8,7.463,7.463a1.375,1.375,0,0,0,1.878,0L31.732,41.942l7.216,7.266-.445.148a4.591,4.591,0,0,0-.643.2c-.2.049-.4.148-.593.2a1.48,1.48,0,0,0-.4.2,4.592,4.592,0,0,0-.494.247l-.741.445c-.148.1-.247.148-.4.247-.1.049-.148.1-.247.148a5.963,5.963,0,0,0-1.186,1.038,10.456,10.456,0,0,0-3.064,7.414,10.866,10.866,0,0,0,.247,2.175c.049.2.1.346.148.544.148.494.3.989.494,1.483v.049a9.066,9.066,0,0,0,.643,1.186Zm39.887,0a7.819,7.819,0,0,1-10.923.1c-.2-.2-.4-.445-.593-.643-.148-.148-.3-.346-.445-.494a4.694,4.694,0,0,1-.494-.84c-.1-.2-.2-.346-.3-.544a4.175,4.175,0,0,1-.247-.84c-.049-.2-.148-.445-.2-.643a8.181,8.181,0,0,1-.148-1.582A7.934,7.934,0,0,1,35.735,53.9a7.642,7.642,0,0,1,5.536-2.274A7.934,7.934,0,0,1,46.807,53.9a7.725,7.725,0,0,1,2.274,5.536A7.905,7.905,0,0,1,46.807,64.925Z" transform="translate(0 -24)"/><path class="a" d="M303.913,264.8a1.724,1.724,0,0,0-.445-.3,1.443,1.443,0,0,0-.445-.1h-.1a1.443,1.443,0,0,0-.445.1,1.167,1.167,0,0,0-.445.3l-3.064,3.064a1.328,1.328,0,0,0,1.878,1.878l.791-.791v5.437a1.335,1.335,0,0,0,2.669,0v-5.437l.791.791a1.328,1.328,0,0,0,1.878-1.878Z" transform="translate(-261.703 -234.695)"/></g></g></svg>