<svg xmlns="http://www.w3.org/2000/svg" width="16.842" height="16" viewBox="0 0 16.842 16"><defs><style>.a{fill:#302f91;}</style></defs><path class="a" d="M8.421,1.5C3.778,1.5,0,4.9,0,9.079a7.006,7.006,0,0,0,1.338,4.1A6.545,6.545,0,0,1,.082,17.021a.281.281,0,0,0,.2.479.263.263,0,0,0,.039,0A15,15,0,0,0,4.984,16a9.137,9.137,0,0,0,3.437.659c4.643,0,8.421-3.4,8.421-7.579S13.064,1.5,8.421,1.5Zm-3.93,8.7A1.123,1.123,0,1,1,5.614,9.079,1.124,1.124,0,0,1,4.491,10.2Zm3.93,0A1.123,1.123,0,1,1,9.544,9.079,1.124,1.124,0,0,1,8.421,10.2Zm3.93,0a1.123,1.123,0,1,1,1.123-1.123A1.124,1.124,0,0,1,12.351,10.2Z" transform="translate(0 -1.5)"/></svg>