<svg width="35" height="35" viewBox="0 0 35 35" fill="none" xmlns="http://www.w3.org/2000/svg">
<path d="M30.625 26.2501H8.75C8.36323 26.2501 7.99229 26.4037 7.7188 26.6772C7.44531 26.9507 7.29167 27.3216 7.29167 27.7084C7.29167 28.0952 7.44531 28.4661 7.7188 28.7396C7.99229 29.0131 8.36323 29.1668 8.75 29.1668H30.625V32.0834H8.75C7.58968 32.0834 6.47688 31.6225 5.65641 30.802C4.83594 29.9815 4.375 28.8687 4.375 27.7084V5.83342C4.375 5.05987 4.68229 4.318 5.22927 3.77102C5.77625 3.22404 6.51812 2.91675 7.29167 2.91675H30.625V26.2501ZM7.29167 23.4063C7.52792 23.3582 7.77146 23.3334 8.02083 23.3334H27.7083V5.83342H7.29167V23.4063ZM23.3333 13.1251H11.6667V10.2084H23.3333V13.1251Z" fill="#302F91"/>
</svg>
