<svg width="256" height="337" viewBox="0 0 256 337" fill="none" xmlns="http://www.w3.org/2000/svg">
<path d="M180.5 5.99944V65C180.5 71.3513 185.649 76.5001 192 76.5001H250L250 323.27C250 327.539 246.539 331 242.27 331H13.73C9.46084 331 6 327.539 6 323.27L6 13.7295C6 9.46035 9.46084 5.99951 13.73 5.99951L180.5 5.99944ZM192.5 64.5001V14.6324L241.66 64.5001H192.5Z" stroke="white" stroke-width="12"/>
<circle cx="73.5378" cy="266.613" r="15.0252" stroke="white" stroke-width="15.0252"/>
<path d="M191.861 234.685V145.16M191.861 145.16V119.591C191.861 114.373 186.673 110.744 181.771 112.534L92.2461 145.235C89.2825 146.318 87.311 149.137 87.311 152.292V182.097M191.861 145.16L87.311 182.097M87.311 182.097V260.353" stroke="white" stroke-width="15.0252" stroke-linejoin="round"/>
<circle cx="176.838" cy="235.311" r="15.0252" stroke="white" stroke-width="15.0252"/>
</svg>
