<svg width="35" height="35" viewBox="0 0 35 35" fill="none" xmlns="http://www.w3.org/2000/svg">
<path d="M2.91663 5.82313C2.91929 5.44013 3.07252 5.07357 3.34321 4.80261C3.61389 4.53165 3.98031 4.37805 4.36329 4.375H30.6366C31.4358 4.375 32.0833 5.02396 32.0833 5.82313V29.1769C32.0806 29.5599 31.9274 29.9264 31.6567 30.1974C31.386 30.4683 31.0196 30.6219 30.6366 30.625H4.36329C3.97948 30.6246 3.61152 30.4719 3.34026 30.2003C3.069 29.9288 2.91663 29.5607 2.91663 29.1769V5.82313ZM5.83329 7.29167V27.7083H29.1666V7.29167H5.83329ZM8.74996 10.2083H17.5V18.9583H8.74996V10.2083ZM11.6666 13.125V16.0417H14.5833V13.125H11.6666ZM8.74996 21.875H26.25V24.7917H8.74996V21.875ZM20.4166 10.2083H26.25V13.125H20.4166V10.2083ZM20.4166 16.0417H26.25V18.9583H20.4166V16.0417Z" fill="#302F91"/>
</svg>
