<svg xmlns="http://www.w3.org/2000/svg" width="56.485" height="54" viewBox="0 0 56.485 54"><defs><style>.a,.b,.c,.g{fill:none;}.b,.c{stroke:#2f2f8f;}.c{stroke-width:2px;}.d{fill:#302f91;font-size:13px;font-family:Arial-BoldMT, Arial;font-weight:700;}.e,.f{stroke:none;}.f{fill:#2f2f8f;}</style></defs><g transform="translate(-906 -262)"><g class="a" transform="translate(906 262)"><path class="e" d="M5,0H36a5,5,0,0,1,5,5V49a5,5,0,0,1-5,5H5a5,5,0,0,1-5-5V5A5,5,0,0,1,5,0Z"/><path class="f" d="M 5 2 C 3.345790863037109 2 2 3.345790863037109 2 5 L 2 49 C 2 50.65420913696289 3.345790863037109 52 5 52 L 36 52 C 37.65420913696289 52 39 50.65420913696289 39 49 L 39 5 C 39 3.345790863037109 37.65420913696289 2 36 2 L 5 2 M 5 0 L 36 0 C 38.76142120361328 0 41 2.238571166992188 41 5 L 41 49 C 41 51.76142120361328 38.76142120361328 54 36 54 L 5 54 C 2.238571166992188 54 0 51.76142120361328 0 49 L 0 5 C 0 2.238571166992188 2.238571166992188 0 5 0 Z"/></g><g class="a" transform="translate(910 268)"><path class="e" d="M0,0H33V39H0Z"/><path class="f" d="M 2 2 L 2 37 L 31 37 L 31 2 L 2 2 M 0 0 L 33 0 L 33 39 L 0 39 L 0 0 Z"/></g><g class="b" transform="translate(924 308)"><circle class="e" cx="2.5" cy="2.5" r="2.5"/><circle class="g" cx="2.5" cy="2.5" r="2"/></g><g transform="translate(56)"><line class="c" x1="14" transform="translate(869.5 276.5)"/><line class="c" x1="14" transform="translate(869.5 282.5)"/><line class="c" x1="25" transform="translate(858.5 286.5)"/><line class="c" x1="19" transform="translate(858.5 292.5)"/><line class="c" x1="15" transform="translate(858.5 297.5)"/><line class="c" x1="11" transform="translate(862.5 302.5)"/><line class="c" x1="2" transform="translate(858.5 302.5)"/><text class="d" transform="translate(857 282)"><tspan x="0" y="0">E</tspan></text></g><g transform="translate(54 -21)"><g class="a" transform="translate(879 312)"><path class="e" d="M3.132,16.071h0C1.082,15.154,0,13.92,0,12.5A12.5,12.5,0,0,1,21.339,3.661,12.418,12.418,0,0,1,25,12.5c0,1.42-1.083,2.654-3.131,3.569A9.343,9.343,0,0,0,22,14.5a9.5,9.5,0,0,0-19,0,9.171,9.171,0,0,0,.132,1.57Z"/><path class="f" d="M 22.01826667785645 8.053160667419434 C 21.50695419311523 6.960473537445068 20.80330276489258 5.953698635101318 19.9249095916748 5.075302124023438 C 17.9417610168457 3.092162132263184 15.30490970611572 2.000002145767212 12.50010013580322 2.000002145767212 C 9.695290565490723 2.000002145767212 7.058440208435059 3.092162132263184 5.075300216674805 5.075292110443115 C 4.197751045227051 5.952845573425293 3.494767665863037 6.958182811737061 2.983576774597168 8.049651145935059 C 5.054513931274414 5.004336833953857 8.547599792480469 3.000402212142944 12.50010013580322 3.000402212142944 C 16.45384216308594 3.000402212142944 19.94779586791992 5.005837440490723 22.01826667785645 8.053160667419434 M 3.13195013999939 16.07130241394043 L 3.130230188369751 16.07053184509277 C 1.082420110702515 15.15431213378906 1.358032193365943e-07 13.91968250274658 1.358032193365943e-07 12.50010204315186 C 1.358032193365943e-07 9.16107177734375 1.30020010471344 6.021982192993164 3.661080121994019 3.66108226776123 C 6.021980285644531 1.300202131271362 9.161069869995117 2.160644498871989e-06 12.50010013580322 2.160644498871989e-06 C 15.83913040161133 2.160644498871989e-06 18.97821998596191 1.300202131271362 21.33912086486816 3.66108226776123 C 23.70000076293945 6.021982192993164 25.00020027160645 9.16107177734375 25.00020027160645 12.50010204315186 C 25.00020027160645 13.92020225524902 23.91755104064941 15.15434169769287 21.86930084228516 16.06911277770996 C 21.95528984069824 15.56588172912598 21.99959945678711 15.03828239440918 21.99959945678711 14.49990177154541 C 21.99959945678711 9.261861801147461 17.73814010620117 5.000401973724365 12.50010013580322 5.000401973724365 C 7.261559963226318 5.000401973724365 2.99970006942749 9.261861801147461 2.99970006942749 14.49990177154541 C 2.99970006942749 15.03905200958252 3.044090032577515 15.56712245941162 3.131630182266235 16.0694522857666 L 3.13195013999939 16.07130241394043 Z"/></g><g class="a" transform="translate(875 325)"><path class="e" d="M6,0C9.314,0,9.314,12,6,12A6,6,0,0,1,6,0Z"/><path class="f" d="M 5.724630355834961 2.009376525878906 C 3.646873474121094 2.151218414306641 2.000004291534424 3.886874198913574 2.000004291534424 6 C 2.000004291534424 8.113126754760742 3.646873474121094 9.848781585693359 5.724630355834961 9.990623474121094 C 5.838346481323242 9.812437057495117 6.013548851013184 9.451026916503906 6.168913841247559 8.839309692382812 C 6.372923851013184 8.036069869995117 6.485283851623535 7.0277099609375 6.485274314880371 6 C 6.485283851623535 4.9722900390625 6.372923851013184 3.963930130004883 6.168913841247559 3.160690307617188 C 6.013548851013184 2.548973083496094 5.838346481323242 2.187562942504883 5.724630355834961 2.009376525878906 M 6.000003814697266 0 C 9.313704490661621 0 9.313704490661621 12 6.000003814697266 12 C 2.686294078826904 12 3.814697265625e-06 9.31371021270752 3.814697265625e-06 6 C 3.814697265625e-06 2.68628978729248 2.686294078826904 0 6.000003814697266 0 Z"/></g><g class="a" transform="translate(900 325)"><path class="e" d="M2.485,0c-3.314,0-3.314,12,0,12a6,6,0,1,0,0-12Z"/><path class="f" d="M 2.760650157928467 2.00937557220459 C 2.646934509277344 2.187562942504883 2.471726417541504 2.548973083496094 2.316361427307129 3.160690307617188 C 2.112351417541504 3.963930130004883 2.000001430511475 4.9722900390625 2.000001430511475 6 C 2.000001430511475 7.0277099609375 2.112351417541504 8.036069869995117 2.316361427307129 8.839309692382812 C 2.471726417541504 9.451026916503906 2.646934509277344 9.812437057495117 2.760650157928467 9.99062442779541 C 4.838407516479492 9.848782539367676 6.485291481018066 8.113126754760742 6.485291481018066 6 C 6.485291481018066 3.886874198913574 4.838407516479492 2.151217460632324 2.760650157928467 2.00937557220459 M 2.485281467437744 0 C 5.798991680145264 0 8.485291481018066 2.68628978729248 8.485291481018066 6 C 8.485291481018066 9.31371021270752 5.798991680145264 12 2.485281467437744 12 C -0.8284282684326172 12 -0.8284282684326172 0 2.485281467437744 0 Z"/></g></g></g></svg>