<svg xmlns="http://www.w3.org/2000/svg" width="26.164" height="25.958" viewBox="0 0 26.164 25.958"><defs><style>.a{fill:#fff;}</style></defs><g transform="translate(-1606.354 -30.618)"><path class="a" d="M8.787,33.6a2.592,2.592,0,1,0,1.837.759A2.6,2.6,0,0,0,8.787,33.6Zm12.979,0a2.592,2.592,0,1,0,1.836.759,2.6,2.6,0,0,0-1.836-.759ZM9.011,29.379l.039-.156,1.168-2.116h9.665a2.584,2.584,0,0,0,2.272-1.335l5.01-9.1L24.9,15.427h-.013l-1.425,2.6-3.584,6.485H10.773l-.168-.35L7.7,18.025l-1.233-2.6-1.22-2.6H1v2.6H3.6l4.672,9.851L6.516,28.457A2.509,2.509,0,0,0,6.192,29.7a2.607,2.607,0,0,0,2.6,2.6H24.364V29.7H9.332a.33.33,0,0,1-.322-.324Z" transform="translate(1605.354 17.787)"/></g></svg>