<!--?xml version="1.0" standalone="no"?--><svg version="1.0" xmlns="http://www.w3.org/2000/svg" width="300.000000pt" height="300.000000pt" viewBox="0 0 300.000000 300.000000" preserveAspectRatio="xMidYMid meet">
<metadata>
  <rdf:rdf xmlns:rdf="http://www.w3.org/1999/02/22-rdf-syntax-ns#" xmlns:rdfs="http://www.w3.org/2000/01/rdf-schema#" xmlns:dc="http://purl.org/dc/elements/1.1/">
    <rdf:description dc:title="eye looking" dc:publisher="Hiox" dc:date="2015-04-11" dc:format="image/svg+xml" dc:language="en">
      <dc:creator>
        <rdf:bag>
          <rdf:li>svgimages.com</rdf:li>
        </rdf:bag>
      </dc:creator>
    </rdf:description>
  </rdf:rdf>
</metadata>
<g transform="translate(0.000000,300.000000) scale(0.100000,-0.100000)" fill="#0D0D0D" stroke="none">
<path d="M1949 2112 c-75 -57 -228 -113 -314 -115 -27 -1 -110 5 -183 13 -375
39 -720 -86 -984 -356 -104 -107 -197 -232 -248 -336 -21 -40 -16 -37 77 53
216 212 428 358 621 428 45 16 82 27 82 23 0 -4 -24 -31 -54 -59 -191 -185
-194 -480 -7 -663 69 -67 141 -104 243 -127 73 -16 82 -15 160 1 130 28 211
77 289 174 59 76 91 169 92 272 1 169 -73 306 -218 405 l-40 27 70 -7 c221
-21 477 -109 845 -289 74 -36 153 -69 174 -74 50 -10 54 -23 14 -42 -18 -8
-56 -46 -85 -85 -183 -242 -390 -389 -654 -465 -157 -45 -245 -53 -479 -47
-255 6 -412 35 -675 122 -91 30 -135 48 -330 128 -33 14 -80 28 -105 31 l-45
7 45 -21 c141 -67 629 -232 865 -291 81 -21 112 -23 305 -22 182 1 236 5 349
25 114 21 135 23 147 11 8 -8 14 -21 14 -29 0 -8 4 -14 9 -14 6 0 6 12 1 29
-10 37 2 49 62 57 43 6 45 5 91 -46 38 -42 45 -47 37 -25 -6 15 -19 40 -30 55
-28 39 -26 45 20 60 38 13 42 12 66 -11 15 -13 40 -42 55 -63 19 -25 29 -33
29 -22 0 20 -25 71 -52 105 l-19 25 33 18 c18 9 37 17 41 18 4 0 30 -21 57
-46 57 -54 67 -43 15 15 -19 21 -35 43 -35 48 0 6 14 16 30 23 29 12 34 10 91
-34 58 -45 60 -46 43 -16 -10 17 -33 41 -51 53 -18 12 -33 24 -33 27 1 3 20
20 44 38 49 37 78 39 154 13 69 -24 66 -9 -5 25 -32 15 -60 29 -62 31 -3 2 5
13 16 24 20 20 25 21 88 10 37 -7 69 -10 71 -8 3 2 -23 12 -56 21 -33 9 -60
23 -60 30 0 7 11 23 25 36 25 23 58 24 145 5 30 -7 -41 28 -85 42 -18 6 -29
15 -26 24 2 8 9 34 15 59 l12 45 45 -3 c41 -3 43 -2 25 13 -11 8 -25 15 -30
15 -22 0 -136 63 -136 75 0 7 20 15 48 19 26 4 72 12 102 20 52 12 47 12 -82
8 -128 -4 -138 -3 -173 18 -20 12 -33 26 -28 30 4 4 37 14 73 23 73 18 173 56
150 56 -8 1 -44 -6 -80 -15 -36 -8 -99 -19 -140 -24 -67 -8 -78 -6 -109 12
-31 20 -33 22 -15 35 10 7 26 13 36 13 29 0 141 50 173 77 l30 25 -35 -20
c-55 -31 -152 -61 -222 -68 -57 -6 -70 -3 -111 19 -50 26 -49 37 3 51 59 17
311 136 287 136 -4 0 -24 -7 -45 -16 -110 -46 -314 -104 -365 -104 -18 0 -42
6 -53 14 -18 14 -18 15 11 26 70 27 235 120 212 120 -4 0 -34 -11 -67 -25 -89
-37 -102 -31 -35 18 72 53 107 91 45 49 -53 -35 -129 -70 -224 -102 -73 -24
-115 -23 -176 3 l-35 15 39 17 c50 21 130 73 176 114 38 34 37 42 -1 13z
m-607 -375 c68 -40 128 -138 128 -211 0 -30 -4 -36 -34 -46 -49 -16 -68 -51
-64 -113 3 -51 3 -52 -39 -75 -131 -72 -305 -8 -358 131 -25 67 -17 168 18
223 29 46 87 95 132 112 52 20 167 9 217 -21z m-330 -613 c29 -14 62 -30 73
-37 11 -6 62 -12 114 -12 58 -1 96 -5 98 -12 2 -6 -11 -23 -29 -38 -28 -24
-38 -26 -76 -21 -55 7 -150 57 -205 107 -23 21 -39 38 -35 39 3 0 30 -11 60
-26z m362 -52 c9 -14 -12 -35 -28 -29 -23 9 -20 37 3 37 11 0 22 -4 25 -8z" id="node1" class="node"></path>
</g>
<g transform="translate(0.000000,300.000000) scale(0.100000,-0.100000)" fill="#A2A2A2" stroke="none">

<path d="M1125 1758 c-45 -17 -103 -66 -132 -112 -35 -55 -43 -156 -18 -223
53 -139 227 -203 358 -131 42 23 42 24 39 75 -4 62 15 97 64 113 30 10 34 16
34 46 0 73 -60 171 -128 211 -50 30 -165 41 -217 21z" id="node3" class="node"></path>
<path d="M987 1111 c55 -50 150 -100 205 -107 38 -5 48 -3 76 21 18 15 31 32
29 38 -2 7 -40 11 -98 12 -52 0 -103 6 -114 12 -33 19 -126 63 -133 63 -4 -1
12 -18 35 -39z" id="node4" class="node"></path>
<path d="M1330 1065 c0 -21 30 -31 40 -14 11 17 3 29 -21 29 -10 0 -19 -7 -19
-15z" id="node5" class="node"></path>
</g>
</svg>