<svg width="256" height="337" viewBox="0 0 256 337" fill="none" xmlns="http://www.w3.org/2000/svg">
<rect x="6" y="6" width="244" height="325" rx="7.73" stroke="white" stroke-width="12"/>
<path d="M114.194 276.384L110.031 280.706L114.194 276.384ZM122.438 276.461L126.519 280.859L122.438 276.461ZM83.8994 255.108L88.0031 259.485L83.8994 255.108ZM92.1658 255.164L96.3284 250.843L92.1658 255.164ZM14.0192 320.622L9.91552 316.245L14.0192 320.622ZM185.256 225.79L189.366 221.419L185.256 225.79ZM177.065 225.764L172.984 221.366L177.065 225.764ZM248.109 284.877L244 289.248L248.109 284.877ZM252.219 280.505L189.366 221.419L181.147 230.162L244 289.248L252.219 280.505ZM256 325V289.248H244V325H256ZM165.29 337H244V325H165.29V337ZM18.1229 337H165.289V325H18.1229V337ZM79.7957 250.731L9.91552 316.245L18.1229 325L88.0031 259.485L79.7957 250.731ZM118.356 272.063L96.3284 250.843L88.0031 259.485L110.031 280.706L118.356 272.063ZM172.984 221.366L118.356 272.063L126.519 280.859L181.147 230.162L172.984 221.366ZM110.031 280.706C114.616 285.123 121.853 285.19 126.519 280.859L118.356 272.063L118.356 272.063L110.031 280.706ZM88.0031 259.485L88.0031 259.485L96.3284 250.843C91.7264 246.41 84.4575 246.361 79.7957 250.731L88.0031 259.485ZM18.1229 325C18.0897 325 18.0712 324.997 18.0653 324.996C18.0594 324.995 18.0617 324.995 18.07 324.998C18.0782 325.001 18.0888 325.005 18.1003 325.011C18.1117 325.016 18.1216 325.023 18.1296 325.028C18.1458 325.04 18.1494 325.046 18.145 325.041C18.1429 325.038 18.1393 325.033 18.1351 325.025C18.1309 325.018 18.1267 325.009 18.1229 325C18.1191 324.99 18.1163 324.981 18.1142 324.973C18.1122 324.964 18.1114 324.958 18.111 324.955C18.1103 324.947 18.112 324.955 18.1082 324.974C18.1062 324.984 18.1032 324.995 18.0989 325.007C18.0945 325.019 18.0896 325.029 18.0855 325.037C18.0812 325.045 18.0796 325.046 18.0832 325.041C18.0869 325.037 18.0987 325.022 18.1229 325L9.91552 316.245C1.97941 323.686 7.24457 337 18.1229 337V325ZM169.449 326.675C168.36 325.628 166.88 325 165.289 325V337C163.699 337 162.22 336.372 161.131 335.325L169.449 326.675ZM165.29 325C166.841 325 168.331 325.6 169.449 326.675L161.131 335.325C162.249 336.4 163.74 337 165.29 337V325ZM244 325L244 325V337C250.627 337 256 331.627 256 325H244ZM189.366 221.419C184.768 217.097 177.609 217.074 172.984 221.366L181.147 230.162L181.147 230.162L189.366 221.419ZM244 289.248L244 289.248H256C256 285.937 254.631 282.773 252.219 280.505L244 289.248Z" fill="white"/>
<circle cx="58.5843" cy="61.5843" r="26.5843" stroke="white" stroke-width="12"/>
</svg>
