<svg width="35" height="35" viewBox="0 0 35 35" fill="none" xmlns="http://www.w3.org/2000/svg">
<path d="M17.5 2.9165C25.5543 2.9165 32.0833 9.44546 32.0833 17.4998C32.0833 25.5542 25.5543 32.0832 17.5 32.0832C9.44558 32.0832 2.91663 25.5542 2.91663 17.4998H5.83329C5.83329 23.9428 11.057 29.1665 17.5 29.1665C23.9429 29.1665 29.1666 23.9428 29.1666 17.4998C29.1666 11.0569 23.9429 5.83317 17.5 5.83317C13.4895 5.83317 9.95163 7.85588 7.85308 10.9373H11.6666V13.854H2.91663V5.104H5.83329V8.74984C8.49329 5.20609 12.7298 2.9165 17.5 2.9165ZM18.9583 10.2082V16.8946L23.6877 21.624L21.6241 23.6875L16.0416 18.1021V10.2082H18.9583Z" fill="#302F91"/>
</svg>
