<svg width="306" height="339" viewBox="0 0 306 339" fill="none" xmlns="http://www.w3.org/2000/svg">
<path fill-rule="evenodd" clip-rule="evenodd" d="M48 0C35.2975 0 25 10.2974 25 23V51H17C7.61116 51 0 58.6112 0 68V77C0 86.3888 7.61116 94 17 94H25V127H17C7.61116 127 0 134.611 0 144V153C0 162.389 7.61116 170 17 170H25V203H17C7.61116 203 0 210.611 0 220V229C0 238.389 7.61116 246 17 246H25V275C25 287.703 35.2975 298 48 298H127.5V286H48C41.9249 286 37 281.075 37 275V246V234V215V203V170V158V139V127V94V82V63V51V23C37 16.9249 41.9249 12 48 12H240C246.075 12 251 16.9249 251 23V154.5H263V23C263 10.2975 252.703 0 240 0H48ZM25 234V215H17C14.2386 215 12 217.239 12 220V229C12 231.761 14.2386 234 17 234H25ZM17 139H25V158H17C14.2386 158 12 155.761 12 153V144C12 141.239 14.2386 139 17 139ZM25 82V63H17C14.2386 63 12 65.2386 12 68V77C12 79.7614 14.2386 82 17 82H25Z" fill="white"/>
<path d="M211 292L240 292C249.389 292 257 284.389 257 275L257 246" stroke="white" stroke-width="12"/>
<rect x="83" y="57" width="127" height="65" rx="11" stroke="white" stroke-width="12"/>
<rect x="92.75" y="150.75" width="107.5" height="9.5" stroke="white" stroke-width="9.5"/>
<rect x="114.75" y="177.75" width="63.5" height="9.5" stroke="white" stroke-width="9.5"/>
<rect x="161.133" y="262.016" width="105" height="46" transform="rotate(-45 161.133 262.016)" fill="white"/>
<path d="M249.522 173.627L263.664 159.485C266.007 157.142 269.806 157.142 272.149 159.485L296.191 183.527C298.534 185.87 298.534 189.669 296.191 192.012L282.049 206.154L249.522 173.627Z" fill="white"/>
<path d="M141.638 317.052C140.28 317.282 139.101 316.103 139.331 314.745L145.602 277.82C145.874 276.219 147.84 275.592 148.988 276.741L179.643 307.395C180.791 308.543 180.164 310.509 178.563 310.781L141.638 317.052Z" fill="white"/>
</svg>
