<svg width="35" height="35" viewBox="0 0 35 35" fill="none" xmlns="http://www.w3.org/2000/svg">
<path d="M10.2083 14.5834H29.1667C29.5534 14.5834 29.9244 14.7371 30.1979 15.0106C30.4714 15.2841 30.625 15.655 30.625 16.0418V30.6251C30.625 31.0119 30.4714 31.3828 30.1979 31.6563C29.9244 31.9298 29.5534 32.0834 29.1667 32.0834H5.83333C5.44656 32.0834 5.07563 31.9298 4.80214 31.6563C4.52865 31.3828 4.375 31.0119 4.375 30.6251V16.0418C4.375 15.655 4.52865 15.2841 4.80214 15.0106C5.07563 14.7371 5.44656 14.5834 5.83333 14.5834H7.29167V13.1251C7.29084 10.8249 8.06689 8.5918 9.49403 6.78783C10.9212 4.98386 12.9157 3.71475 15.1544 3.18622C17.3931 2.6577 19.7447 2.90073 21.8279 3.87594C23.9112 4.85115 25.6041 6.50135 26.6321 8.55907L24.0231 9.86282C23.2888 8.39284 22.0796 7.21397 20.5914 6.51733C19.1032 5.82068 17.4234 5.64711 15.8242 6.02474C14.225 6.40238 12.8003 7.30909 11.7809 8.59787C10.7616 9.88666 10.2075 11.4819 10.2083 13.1251V14.5834ZM7.29167 17.5001V29.1668H27.7083V17.5001H7.29167ZM14.5833 21.8751H20.4167V24.7918H14.5833V21.8751Z" fill="#302F91"/>
</svg>
