<svg width="35" height="35" viewBox="0 0 35 35" fill="none" xmlns="http://www.w3.org/2000/svg">
<path d="M8.99788 26.25C9.29917 25.3961 9.85791 24.6567 10.5971 24.1336C11.3363 23.6106 12.2195 23.3298 13.125 23.3298C14.0305 23.3298 14.9137 23.6106 15.6528 24.1336C16.392 24.6567 16.9507 25.3961 17.252 26.25H32.0833V29.1667H17.252C16.9507 30.0206 16.392 30.76 15.6528 31.283C14.9137 31.806 14.0305 32.0869 13.125 32.0869C12.2195 32.0869 11.3363 31.806 10.5971 31.283C9.85791 30.76 9.29917 30.0206 8.99788 29.1667H2.91663V26.25H8.99788ZM17.7479 16.0417C18.0492 15.1878 18.6079 14.4483 19.3471 13.9253C20.0863 13.4023 20.9695 13.1214 21.875 13.1214C22.7805 13.1214 23.6637 13.4023 24.4028 13.9253C25.142 14.4483 25.7007 15.1878 26.002 16.0417H32.0833V18.9583H26.002C25.7007 19.8122 25.142 20.5517 24.4028 21.0747C23.6637 21.5977 22.7805 21.8786 21.875 21.8786C20.9695 21.8786 20.0863 21.5977 19.3471 21.0747C18.6079 20.5517 18.0492 19.8122 17.7479 18.9583H2.91663V16.0417H17.7479ZM8.99788 5.83333C9.29917 4.97942 9.85791 4.24 10.5971 3.71698C11.3363 3.19395 12.2195 2.91309 13.125 2.91309C14.0305 2.91309 14.9137 3.19395 15.6528 3.71698C16.392 4.24 16.9507 4.97942 17.252 5.83333H32.0833V8.74999H17.252C16.9507 9.60389 16.392 10.3433 15.6528 10.8663C14.9137 11.3894 14.0305 11.6702 13.125 11.6702C12.2195 11.6702 11.3363 11.3894 10.5971 10.8663C9.85791 10.3433 9.29917 9.60389 8.99788 8.74999H2.91663V5.83333H8.99788ZM13.125 8.74999C13.5117 8.74999 13.8827 8.59635 14.1562 8.32286C14.4296 8.04937 14.5833 7.67843 14.5833 7.29166C14.5833 6.90489 14.4296 6.53395 14.1562 6.26046C13.8827 5.98697 13.5117 5.83333 13.125 5.83333C12.7382 5.83333 12.3673 5.98697 12.0938 6.26046C11.8203 6.53395 11.6666 6.90489 11.6666 7.29166C11.6666 7.67843 11.8203 8.04937 12.0938 8.32286C12.3673 8.59635 12.7382 8.74999 13.125 8.74999V8.74999ZM21.875 18.9583C22.2617 18.9583 22.6327 18.8047 22.9062 18.5312C23.1796 18.2577 23.3333 17.8868 23.3333 17.5C23.3333 17.1132 23.1796 16.7423 22.9062 16.4688C22.6327 16.1953 22.2617 16.0417 21.875 16.0417C21.4882 16.0417 21.1173 16.1953 20.8438 16.4688C20.5703 16.7423 20.4166 17.1132 20.4166 17.5C20.4166 17.8868 20.5703 18.2577 20.8438 18.5312C21.1173 18.8047 21.4882 18.9583 21.875 18.9583V18.9583ZM13.125 29.1667C13.5117 29.1667 13.8827 29.013 14.1562 28.7395C14.4296 28.466 14.5833 28.0951 14.5833 27.7083C14.5833 27.3216 14.4296 26.9506 14.1562 26.6771C13.8827 26.4036 13.5117 26.25 13.125 26.25C12.7382 26.25 12.3673 26.4036 12.0938 26.6771C11.8203 26.9506 11.6666 27.3216 11.6666 27.7083C11.6666 28.0951 11.8203 28.466 12.0938 28.7395C12.3673 29.013 12.7382 29.1667 13.125 29.1667V29.1667Z" fill="#302F91"/>
</svg>
