<svg width="35" height="35" viewBox="0 0 35 35" fill="none" xmlns="http://www.w3.org/2000/svg">
<path d="M5.91673 23.3333H29.2501V7.29167H5.91673V23.3333ZM19.0417 26.25V29.1667H24.8751V32.0833H10.2917V29.1667H16.1251V26.25H4.44673C4.25523 26.2489 4.06583 26.2099 3.88941 26.1355C3.71298 26.061 3.55298 25.9524 3.41859 25.816C3.2842 25.6796 3.17805 25.518 3.10623 25.3404C3.03441 25.1629 2.99833 24.973 3.00006 24.7815V5.84354C3.00006 5.03271 3.6636 4.375 4.44673 4.375H30.7201C31.5192 4.375 32.1667 5.02979 32.1667 5.84354V24.7815C32.1667 25.5923 31.5032 26.25 30.7201 26.25H19.0417Z" fill="#302F91"/>
<path d="M20.9348 17.3008L24 20.2885L22.3032 22L19.238 19.0123C18.2316 19.6108 17.0433 19.8186 15.8959 19.5966C14.7485 19.3747 13.7208 18.7382 13.0053 17.8066C12.2899 16.875 11.9358 15.7121 12.0096 14.536C12.0833 13.36 12.5798 12.2514 13.4059 11.4181C14.232 10.5848 15.3311 10.084 16.497 10.0097C17.663 9.93528 18.8159 10.2924 19.7395 11.0141C20.6631 11.7357 21.294 12.7724 21.5141 13.9297C21.7341 15.0871 21.5282 16.2856 20.9348 17.3008ZM16.7996 17.262C17.4361 17.262 18.0465 17.007 18.4966 16.553C18.9467 16.099 19.1996 15.4832 19.1996 14.8412C19.1996 14.1992 18.9467 13.5834 18.4966 13.1294C18.0465 12.6754 17.4361 12.4204 16.7996 12.4204C16.1631 12.4204 15.5526 12.6754 15.1025 13.1294C14.6524 13.5834 14.3996 14.1992 14.3996 14.8412C14.3996 15.4832 14.6524 16.099 15.1025 16.553C15.5526 17.007 16.1631 17.262 16.7996 17.262Z" fill="#302F91"/>
</svg>
