<svg xmlns="http://www.w3.org/2000/svg" width="46" height="55" viewBox="0 0 46 55"><defs><style>.a,.b,.e{fill:none;}.b{stroke:#2f2f8f;stroke-width:2px;}.c,.d{stroke:none;}.d{fill:#2f2f8f;}</style></defs><g transform="translate(-1565 -262)"><g class="a" transform="translate(1565 249.701)"><path class="c" d="M41,67.3H5a5.006,5.006,0,0,1-5-5v-45a5.006,5.006,0,0,1,5-5H32.649L46,26.124V62.3A5.006,5.006,0,0,1,41,67.3Z"/><path class="d" d="M 41.00040054321289 65.29930114746094 C 42.65433120727539 65.29930114746094 43.99990081787109 63.95333099365234 43.99990081787109 62.29890060424805 L 43.99990081787109 26.93206214904785 L 31.80032539367676 14.29940032958984 L 5.000400543212891 14.29940032958984 C 3.345970392227173 14.29940032958984 2.000000476837158 15.64497089385986 2.000000476837158 17.29890060424805 L 2.000000476837158 62.29890060424805 C 2.000000476837158 63.95333099365234 3.345970392227173 65.29930114746094 5.000400543212891 65.29930114746094 L 41.00040054321289 65.29930114746094 M 41.00040054321289 67.29930114746094 L 5.000400543212891 67.29930114746094 C 2.243170499801636 67.29930114746094 4.089355343239731e-07 65.05612945556641 4.089355343239731e-07 62.29890060424805 L 4.089355343239731e-07 17.29890060424805 C 4.089355343239731e-07 14.54217052459717 2.243170499801636 12.29940032958984 5.000400543212891 12.29940032958984 L 32.64926147460938 12.29940032958984 L 45.99990081787109 26.12399101257324 L 45.99990081787109 62.29890060424805 C 45.99990081787109 65.05612945556641 43.75712966918945 67.29930114746094 41.00040054321289 67.29930114746094 Z"/></g><path class="b" d="M1594.276,265.251v7.54s-.132,3.382,1.391,5.033,4.7,1.572,4.7,1.572h7.981" transform="translate(2 -3)"/><g class="b" transform="translate(1574 279)"><rect class="c" width="22" height="22"/><rect class="e" x="1" y="1" width="20" height="20"/></g><path class="b" d="M1580.513,300.156v5.866h20.4V286.231h-5.525"/><path class="b" d="M1574,277h12.386"/><path class="b" d="M1588.881,277h2"/></g></svg>