<svg xmlns="http://www.w3.org/2000/svg" width="71" height="17" viewBox="0 0 71 17"><defs><style>.a{fill:#ec450a;}.b,.c{fill:#fff;}.c{font-size:12px;font-family:Poppins-Regular, Poppins;}</style></defs><g transform="translate(-684 -287)"><path class="a" d="M0,0H71a0,0,0,0,1,0,0V11a5,5,0,0,1-5,5H5a5,5,0,0,1-5-5V0A0,0,0,0,1,0,0Z" transform="translate(684 288)"/><path class="b" d="M11.138,7.57v-2A.573.573,0,0,0,10.567,5h-8A.573.573,0,0,0,2,5.571v6.854A.573.573,0,0,0,2.571,13h8a.573.573,0,0,0,.571-.571v-2l2.285,2.285V5.286Z" transform="translate(692 287)"/><text class="c" transform="translate(714 300)"><tspan x="0" y="0">Video</tspan></text></g></svg>